<?xml version="1.0" encoding="UTF-8" standalone="no"?>
<svg width="41px" height="57px" viewBox="0 0 41 57" version="1.1" xmlns="http://www.w3.org/2000/svg" xmlns:xlink="http://www.w3.org/1999/xlink">
    <!-- Generator: Sketch 41.2 (35397) - http://www.bohemiancoding.com/sketch -->
    <title>b_sprite</title>
    <desc>Created with Sketch.</desc>
    <defs></defs>
    <g id="Page-1" stroke="none" stroke-width="1" fill="none" fill-rule="evenodd">
        <g id="b_sprite" fill="#B09263">
            <path d="M15.14,7.92333333 L15.14,11.2233333 C15.14,11.4433333 15.195,11.5733333 15.305,11.6133333 C15.415,11.6533333 15.54,11.6033333 15.68,11.4633333 L19.76,7.35333333 C19.92,7.21333333 20,7.03333333 20,6.81333333 C20,6.59333333 19.92,6.41333333 19.76,6.27333333 L15.68,2.16333333 C15.54,2.02333333 15.415,1.97333333 15.305,2.01333333 C15.195,2.05333333 15.14,2.18333333 15.14,2.40333333 L15.14,5.70333333 L2.78,5.70333333 C2.56,5.70333333 2.375,5.77833333 2.225,5.92833333 C2.075,6.07833333 2,6.25333333 2,6.45333333 L2,7.14333333 C2,7.36333333 2.075,7.54833333 2.225,7.69833333 C2.375,7.84833333 2.56,7.92333333 2.78,7.92333333 L15.14,7.92333333 Z" id="arrow"></path>
            <path d="M20.2474932,33.6343484 C19.9059201,33.947002 19.3809295,33.989013 18.9897906,33.7082578 L2.41695464,21.812461 C1.96828665,21.4904121 1.86564158,20.8656226 2.18769046,20.4169546 C2.50973934,19.9682867 3.13452881,19.8656416 3.5831968,20.1876905 L19.5519886,31.6499111 L34.5743844,20.2046348 C35.0136943,19.8699331 35.6411547,19.9547347 35.9758565,20.3940445 C36.3105583,20.8333544 36.2257567,21.4608148 35.7864468,21.7955166 L20.2474932,33.6343484 Z" id="Combined-Shape"></path>
            <path d="M21.2474932,53.90363 C20.9059201,54.2162836 20.3809295,54.2582946 19.9897906,53.9775395 L3.41695464,42.0817426 C2.96828665,41.7596937 2.86564158,41.1349043 3.18769046,40.6862363 C3.50973934,40.2375683 4.13452881,40.1349232 4.5831968,40.4569721 L20.5519886,51.9191928 L35.5743844,40.4739165 C36.0136943,40.1392147 36.6411547,40.2240163 36.9758565,40.6633262 C37.3105583,41.102636 37.2257567,41.7300964 36.7864468,42.0647982 L21.2474932,53.90363 Z" id="Combined-Shape-Copy" transform="translate(20.090234, 47.217256) scale(1, -1) translate(-20.090234, -47.217256) "></path>
        </g>
    </g>
</svg>