<?xml version="1.0" encoding="UTF-8" standalone="no"?>
<svg width="57px" height="302px" viewBox="0 0 57 302" version="1.1" xmlns="http://www.w3.org/2000/svg" xmlns:xlink="http://www.w3.org/1999/xlink">
    <!-- Generator: Sketch 42 (36781) - http://www.bohemiancoding.com/sketch -->
    <title>b_sprite</title>
    <desc>Created with Sketch.</desc>
    <defs>
        <polygon id="path-1" points="0 165 52 165 52 0 0 0"></polygon>
    </defs>
    <g id="Page-1" stroke="none" stroke-width="1" fill="none" fill-rule="evenodd">
        <g id="b_sprite">
            <path d="M15.14,7.92333333 L15.14,11.2233333 C15.14,11.4433333 15.195,11.5733333 15.305,11.6133333 C15.415,11.6533333 15.54,11.6033333 15.68,11.4633333 L19.76,7.35333333 C19.92,7.21333333 20,7.03333333 20,6.81333333 C20,6.59333333 19.92,6.41333333 19.76,6.27333333 L15.68,2.16333333 C15.54,2.02333333 15.415,1.97333333 15.305,2.01333333 C15.195,2.05333333 15.14,2.18333333 15.14,2.40333333 L15.14,5.70333333 L2.78,5.70333333 C2.56,5.70333333 2.375,5.77833333 2.225,5.92833333 C2.075,6.07833333 2,6.25333333 2,6.45333333 L2,7.14333333 C2,7.36333333 2.075,7.54833333 2.225,7.69833333 C2.375,7.84833333 2.56,7.92333333 2.78,7.92333333 L15.14,7.92333333 Z" id="arrow" fill="#B09263"></path>
            <path d="M19.5519886,31.6499111 L3.5831968,20.1876905 C3.13452881,19.8656416 2.50973934,19.9682867 2.18769046,20.4169546 C1.86564158,20.8656226 1.96828665,21.4904121 2.41695464,21.812461 L18.9897906,33.7082578 C19.3809295,33.989013 19.9059201,33.947002 20.2474932,33.6343484 L35.7864468,21.7955166 C36.2257567,21.4608148 36.3105583,20.8333544 35.9758565,20.3940445 C35.6411547,19.9547347 35.0136943,19.8699331 34.5743844,20.2046348 L19.5519886,31.6499111 Z" id="Combined-Shape" fill="#B09263" fill-rule="nonzero"></path>
            <path d="M20.5519886,51.9191928 L4.5831968,40.4569721 C4.13452881,40.1349232 3.50973934,40.2375683 3.18769046,40.6862363 C2.86564158,41.1349043 2.96828665,41.7596937 3.41695464,42.0817426 L19.9897906,53.9775395 C20.3809295,54.2582946 20.9059201,54.2162836 21.2474932,53.90363 L36.7864468,42.0647982 C37.2257567,41.7300964 37.3105583,41.102636 36.9758565,40.6633262 C36.6411547,40.2240163 36.0136943,40.1392147 35.5743844,40.4739165 L20.5519886,51.9191928 Z" id="Combined-Shape-Copy" fill="#B09263" fill-rule="nonzero" transform="translate(20.090234, 47.217256) scale(1, -1) translate(-20.090234, -47.217256) "></path>
            <g id="Group" transform="translate(2.000000, 103.000000)">
                <g id="Page-1">
                    <path d="M51.4090909,33.7096774 C51.4090909,35.0160753 50.3507727,36.0752688 49.0454545,36.0752688 L2.95454545,36.0752688 C1.64922727,36.0752688 0.590909091,35.0160753 0.590909091,33.7096774 L0.590909091,2.95698925 C0.590909091,1.6505914 1.64922727,0.591397849 2.95454545,0.591397849 L49.0454545,0.591397849 C50.3507727,0.591397849 51.4090909,1.6505914 51.4090909,2.95698925 L51.4090909,33.7096774 Z" id="Fill-1" fill="#F2F2F2"></path>
                    <path d="M51.4090909,33.7096774 C51.4090909,35.0160753 50.3507727,36.0752688 49.0454545,36.0752688 L2.95454545,36.0752688 C1.64922727,36.0752688 0.590909091,35.0160753 0.590909091,33.7096774 L0.590909091,2.95698925 C0.590909091,1.6505914 1.64922727,0.591397849 2.95454545,0.591397849 L49.0454545,0.591397849 C50.3507727,0.591397849 51.4090909,1.6505914 51.4090909,2.95698925 L51.4090909,33.7096774 Z" id="Stroke-3" stroke="#5A6675" stroke-width="2"></path>
                    <path d="M27.1818182,21.8817204 C27.1818182,22.5346237 26.6523636,23.0645161 26,23.0645161 L6.5,23.0645161 C5.84763636,23.0645161 5.31818182,22.5346237 5.31818182,21.8817204 L5.31818182,18.9247312 C5.31818182,18.271828 5.84763636,17.7419355 6.5,17.7419355 L26,17.7419355 C26.6523636,17.7419355 27.1818182,18.271828 27.1818182,18.9247312 L27.1818182,21.8817204 Z" id="Fill-5" fill="#B9D4EB"></path>
                    <path d="M0.590909091,104.677419 L0.590909091,90.8783333 C0.590909091,89.5766667 1.45777273,88.7096774 2.75777273,88.7096774 L48.8486818,88.7096774 C50.1486818,88.7096774 51.4090909,89.5766667 51.4090909,90.8783333 L51.4090909,104.677419" id="Fill-7" fill="#0D528B"></path>
                    <path d="M51.4090909,121.630726 C51.4090909,122.931801 50.1486818,124.193253 48.8486818,124.193253 L2.75777273,124.193253 C1.45777273,124.193253 0.590909091,122.931801 0.590909091,121.630726 L0.590909091,113.153629 C0.590909091,111.852554 1.55586364,110.779758 2.85586364,110.769704 L48.9964091,110.4125 C50.2964091,110.402446 51.4090909,111.458091 51.4090909,112.759758 L51.4090909,121.630726 Z" id="Fill-9" fill="#EC9607"></path>
                    <mask id="mask-2" fill="white">
                        <use xlink:href="#path-1"></use>
                    </mask>
                    <g id="Clip-12"></g>
                    <polygon id="Fill-11" fill="#FFFFFF" mask="url(#mask-2)" points="-0.409090909 115.913978 51.5909091 115.913978 51.5909091 98.172043 -0.409090909 98.172043"></polygon>
                    <polygon id="Fill-13" fill="#0D528B" mask="url(#mask-2)" points="10.6363636 108.817204 40.1818182 108.817204 40.1818182 105.268817 10.6363636 105.268817"></polygon>
                    <path d="M50.8181818,162.634409 C50.8181818,163.940806 49.7598636,165 48.4545455,165 L2.36363636,165 C1.05831818,165 0,163.940806 0,162.634409 L0,131.88172 C0,130.575323 1.05831818,129.516129 2.36363636,129.516129 L48.4545455,129.516129 C49.7598636,129.516129 50.8181818,130.575323 50.8181818,131.88172 L50.8181818,162.634409 Z" id="Fill-14" fill="#063375" mask="url(#mask-2)"></path>
                    <path d="M27.5753636,147.349022 C27.5753636,152.490634 23.4118182,156.658806 18.2744545,156.658806 C13.1370909,156.658806 8.97295455,152.490634 8.97295455,147.349022 C8.97295455,142.207409 13.1370909,138.039828 18.2744545,138.039828 C23.4118182,138.039828 27.5753636,142.207409 27.5753636,147.349022" id="Fill-15" fill="#ED1C24" mask="url(#mask-2)"></path>
                    <path d="M41.4317091,147.349022 C41.4317091,152.490634 37.2675727,156.658806 32.1296182,156.658806 C26.9928455,156.658806 22.8287091,152.490634 22.8287091,147.349022 C22.8287091,142.207409 26.9928455,138.039828 32.1296182,138.039828 C37.2675727,138.039828 41.4317091,142.207409 41.4317091,147.349022" id="Fill-16" fill="#FAA61A" mask="url(#mask-2)"></path>
                    <polygon id="Fill-17" fill="#FFFFFF" mask="url(#mask-2)" points="13.5909091 149.623656 37.2272727 149.623656 37.2272727 146.075269 13.5909091 146.075269"></polygon>
                    <path d="M50.8181818,79.8387097 C50.8181818,81.1451075 49.7598636,82.2043011 48.4545455,82.2043011 L2.36363636,82.2043011 C1.05831818,82.2043011 0,81.1451075 0,79.8387097 L0,49.0860215 C0,47.7796237 1.05831818,46.7204301 2.36363636,46.7204301 L48.4545455,46.7204301 C49.7598636,46.7204301 50.8181818,47.7796237 50.8181818,49.0860215 L50.8181818,79.8387097 Z" id="Fill-18" fill="#23A8E0" mask="url(#mask-2)"></path>
                    <polygon id="Fill-19" fill="#FFFFFF" mask="url(#mask-2)" points="17.1363636 62.0967742 50.8181818 62.0967742 50.8181818 56.7741935 17.1363636 56.7741935"></polygon>
                    <polygon id="Fill-20" fill="#FFFFFF" mask="url(#mask-2)" points="0 73.9247312 33.6818182 73.9247312 33.6818182 68.6021505 0 68.6021505"></polygon>
                    <polygon id="Fill-21" fill="#5A6675" mask="url(#mask-2)" points="0 13.0107527 50.8181818 13.0107527 50.8181818 7.68817204 0 7.68817204"></polygon>
                </g>
            </g>
            <g id="Group-2" transform="translate(3.000000, 74.000000)" stroke="#1D1D1D" stroke-width="3" stroke-linecap="round">
                <path d="M0,1.5 L28.6923128,1.5" id="Line"></path>
                <path d="M0,9.5 L28.6923128,9.5" id="Line-Copy"></path>
                <path d="M0,17.5 L28.6923128,17.5" id="Line-Copy-2"></path>
            </g>
            <path d="M18,282 L17,282 L17,280 C17,277.24 14.76,275 12,275 C9.24,275 7,277.24 7,280 L7,282 L6,282 C4.9,282 4,282.9 4,284 L4,294 C4,295.1 4.9,296 6,296 L18,296 C19.1,296 20,295.1 20,294 L20,284 C20,282.9 19.1,282 18,282 L18,282 Z M12,291 C10.9,291 10,290.1 10,289 C10,287.9 10.9,287 12,287 C13.1,287 14,287.9 14,289 C14,290.1 13.1,291 12,291 L12,291 Z M15.1,282 L8.9,282 L8.9,280 C8.9,278.29 10.29,276.9 12,276.9 C13.71,276.9 15.1,278.29 15.1,280 L15.1,282 L15.1,282 Z" id="Shape" fill="#1D1D1D"></path>
        </g>
    </g>
</svg>