<?xml version="1.0" encoding="UTF-8" standalone="no"?>
<svg width="57px" height="27px" viewBox="0 0 57 27" version="1.1" xmlns="http://www.w3.org/2000/svg" xmlns:xlink="http://www.w3.org/1999/xlink">
    <!-- Generator: Sketch 41.1 (35376) - http://www.bohemiancoding.com/sketch -->
    <title>b-sprite</title>
    <desc>Created with Sketch.</desc>
    <defs></defs>
    <g id="Page-1" stroke="none" stroke-width="1" fill="none" fill-rule="evenodd">
        <g id="b-sprite" fill="#1D1D1D">
            <path d="M16.14,8.92333333 L16.14,12.2233333 C16.14,12.4433333 16.195,12.5733333 16.305,12.6133333 C16.415,12.6533333 16.54,12.6033333 16.68,12.4633333 L20.76,8.35333333 C20.92,8.21333333 21,8.03333333 21,7.81333333 C21,7.59333333 20.92,7.41333333 20.76,7.27333333 L16.68,3.16333333 C16.54,3.02333333 16.415,2.97333333 16.305,3.01333333 C16.195,3.05333333 16.14,3.18333333 16.14,3.40333333 L16.14,6.70333333 L3.78,6.70333333 C3.56,6.70333333 3.375,6.77833333 3.225,6.92833333 C3.075,7.07833333 3,7.25333333 3,7.45333333 L3,8.14333333 C3,8.36333333 3.075,8.54833333 3.225,8.69833333 C3.375,8.84833333 3.56,8.92333333 3.78,8.92333333 L16.14,8.92333333 Z" id="arrow"></path>
        </g>
    </g>
</svg>