<?xml version="1.0" encoding="UTF-8" standalone="no"?>
<svg width="57px" height="389px" viewBox="0 0 57 389" version="1.1" xmlns="http://www.w3.org/2000/svg" xmlns:xlink="http://www.w3.org/1999/xlink">
    <!-- Generator: Sketch 42 (36781) - http://www.bohemiancoding.com/sketch -->
    <title>b_sprite</title>
    <desc>Created with Sketch.</desc>
    <defs>
        <circle id="path-1" cx="17" cy="40" r="4"></circle>
        <mask id="mask-2" maskContentUnits="userSpaceOnUse" maskUnits="objectBoundingBox" x="0" y="0" width="8" height="8" fill="white">
            <use xlink:href="#path-1"></use>
        </mask>
        <circle id="path-3" cx="32" cy="40" r="4"></circle>
        <mask id="mask-4" maskContentUnits="userSpaceOnUse" maskUnits="objectBoundingBox" x="0" y="0" width="8" height="8" fill="white">
            <use xlink:href="#path-3"></use>
        </mask>
        <path d="M45,366 L48.4491152,366 L51.4285217,369.126814 C53.3005793,371.091492 54.8181818,374.875064 54.8181818,377.600263 L54.8181818,380.625 L45,380.625 L45,366 Z" id="path-5"></path>
        <mask id="mask-6" maskContentUnits="userSpaceOnUse" maskUnits="objectBoundingBox" x="0" y="0" width="9.81818182" height="14.625" fill="white">
            <use xlink:href="#path-5"></use>
        </mask>
    </defs>
    <g id="Page-1" stroke="none" stroke-width="1" fill="none" fill-rule="evenodd">
        <g id="b_sprite">
            <path d="M15.14,7.92333333 L15.14,11.2233333 C15.14,11.4433333 15.195,11.5733333 15.305,11.6133333 C15.415,11.6533333 15.54,11.6033333 15.68,11.4633333 L19.76,7.35333333 C19.92,7.21333333 20,7.03333333 20,6.81333333 C20,6.59333333 19.92,6.41333333 19.76,6.27333333 L15.68,2.16333333 C15.54,2.02333333 15.415,1.97333333 15.305,2.01333333 C15.195,2.05333333 15.14,2.18333333 15.14,2.40333333 L15.14,5.70333333 L2.78,5.70333333 C2.56,5.70333333 2.375,5.77833333 2.225,5.92833333 C2.075,6.07833333 2,6.25333333 2,6.45333333 L2,7.14333333 C2,7.36333333 2.075,7.54833333 2.225,7.69833333 C2.375,7.84833333 2.56,7.92333333 2.78,7.92333333 L15.14,7.92333333 Z" id="arrow" fill="#B09263"></path>
            <path d="M19.5519886,31.6499111 L3.5831968,20.1876905 C3.13452881,19.8656416 2.50973934,19.9682867 2.18769046,20.4169546 C1.86564158,20.8656226 1.96828665,21.4904121 2.41695464,21.812461 L18.9897906,33.7082578 C19.3809295,33.989013 19.9059201,33.947002 20.2474932,33.6343484 L35.7864468,21.7955166 C36.2257567,21.4608148 36.3105583,20.8333544 35.9758565,20.3940445 C35.6411547,19.9547347 35.0136943,19.8699331 34.5743844,20.2046348 L19.5519886,31.6499111 Z" id="Combined-Shape" fill="#B09263" fill-rule="nonzero"></path>
            <path d="M20.5519886,51.9191928 L4.5831968,40.4569721 C4.13452881,40.1349232 3.50973934,40.2375683 3.18769046,40.6862363 C2.86564158,41.1349043 2.96828665,41.7596937 3.41695464,42.0817426 L19.9897906,53.9775395 C20.3809295,54.2582946 20.9059201,54.2162836 21.2474932,53.90363 L36.7864468,42.0647982 C37.2257567,41.7300964 37.3105583,41.102636 36.9758565,40.6633262 C36.6411547,40.2240163 36.0136943,40.1392147 35.5743844,40.4739165 L20.5519886,51.9191928 Z" id="Combined-Shape-Copy" fill="#B09263" fill-rule="nonzero" transform="translate(20.090234, 47.217256) scale(1, -1) translate(-20.090234, -47.217256) "></path>
            <g id="Group" transform="translate(1.000000, 103.000000)">
                <g id="Page-1">
                    <path d="M52.4090909,33.7096774 C52.4090909,35.0160753 51.3507727,36.0752688 50.0454545,36.0752688 L3.95454545,36.0752688 C2.64922727,36.0752688 1.59090909,35.0160753 1.59090909,33.7096774 L1.59090909,2.95698925 C1.59090909,1.6505914 2.64922727,0.591397849 3.95454545,0.591397849 L50.0454545,0.591397849 C51.3507727,0.591397849 52.4090909,1.6505914 52.4090909,2.95698925 L52.4090909,33.7096774 Z" id="Fill-1" fill="#F2F2F2"></path>
                    <path d="M52.4090909,33.7096774 C52.4090909,35.0160753 51.3507727,36.0752688 50.0454545,36.0752688 L3.95454545,36.0752688 C2.64922727,36.0752688 1.59090909,35.0160753 1.59090909,33.7096774 L1.59090909,2.95698925 C1.59090909,1.6505914 2.64922727,0.591397849 3.95454545,0.591397849 L50.0454545,0.591397849 C51.3507727,0.591397849 52.4090909,1.6505914 52.4090909,2.95698925 L52.4090909,33.7096774 Z" id="Stroke-3" stroke="#1D1D1D" stroke-width="2"></path>
                    <path d="M28.1818182,21.8817204 C28.1818182,22.5346237 27.6523636,23.0645161 27,23.0645161 L7.5,23.0645161 C6.84763636,23.0645161 6.31818182,22.5346237 6.31818182,21.8817204 L6.31818182,18.9247312 C6.31818182,18.271828 6.84763636,17.7419355 7.5,17.7419355 L27,17.7419355 C27.6523636,17.7419355 28.1818182,18.271828 28.1818182,18.9247312 L28.1818182,21.8817204 Z" id="Fill-5" fill="#B09263"></path>
                    <path d="M1.59090909,104.677419 L1.59090909,90.8783333 C1.59090909,89.5766667 2.45777273,88.7096774 3.75777273,88.7096774 L49.8486818,88.7096774 C51.1486818,88.7096774 52.4090909,89.5766667 52.4090909,90.8783333 L52.4090909,104.677419" id="Fill-7" fill="#0D528B"></path>
                    <path d="M52.4090909,121.630726 C52.4090909,122.931801 51.1486818,124.193253 49.8486818,124.193253 L3.75777273,124.193253 C2.45777273,124.193253 1.59090909,122.931801 1.59090909,121.630726 L1.59090909,113.153629 C1.59090909,111.852554 2.55586364,110.779758 3.85586364,110.769704 L49.9964091,110.4125 C51.2964091,110.402446 52.4090909,111.458091 52.4090909,112.759758 L52.4090909,121.630726 Z" id="Fill-9" fill="#EC9607"></path>
                    <polygon id="Fill-11" fill="#FFFFFF" points="0.590909091 115.913978 52.5909091 115.913978 52.5909091 98.172043 0.590909091 98.172043"></polygon>
                    <polygon id="Fill-13" fill="#0D528B" points="11.6363636 108.817204 41.1818182 108.817204 41.1818182 105.268817 11.6363636 105.268817"></polygon>
                    <path d="M51.8181818,162.634409 C51.8181818,163.940806 50.7598636,165 49.4545455,165 L3.36363636,165 C2.05831818,165 1,163.940806 1,162.634409 L1,131.88172 C1,130.575323 2.05831818,129.516129 3.36363636,129.516129 L49.4545455,129.516129 C50.7598636,129.516129 51.8181818,130.575323 51.8181818,131.88172 L51.8181818,162.634409 Z" id="Fill-14" fill="#063375"></path>
                    <path d="M28.5753636,147.349022 C28.5753636,152.490634 24.4118182,156.658806 19.2744545,156.658806 C14.1370909,156.658806 9.97295455,152.490634 9.97295455,147.349022 C9.97295455,142.207409 14.1370909,138.039828 19.2744545,138.039828 C24.4118182,138.039828 28.5753636,142.207409 28.5753636,147.349022" id="Fill-15" fill="#ED1C24"></path>
                    <path d="M42.4317091,147.349022 C42.4317091,152.490634 38.2675727,156.658806 33.1296182,156.658806 C27.9928455,156.658806 23.8287091,152.490634 23.8287091,147.349022 C23.8287091,142.207409 27.9928455,138.039828 33.1296182,138.039828 C38.2675727,138.039828 42.4317091,142.207409 42.4317091,147.349022" id="Fill-16" fill="#FAA61A"></path>
                    <polygon id="Fill-17" fill="#FFFFFF" points="14.5909091 149.623656 38.2272727 149.623656 38.2272727 146.075269 14.5909091 146.075269"></polygon>
                    <path d="M51.8181818,79.8387097 C51.8181818,81.1451075 50.7598636,82.2043011 49.4545455,82.2043011 L3.36363636,82.2043011 C2.05831818,82.2043011 1,81.1451075 1,79.8387097 L1,49.0860215 C1,47.7796237 2.05831818,46.7204301 3.36363636,46.7204301 L49.4545455,46.7204301 C50.7598636,46.7204301 51.8181818,47.7796237 51.8181818,49.0860215 L51.8181818,79.8387097 Z" id="Fill-18" fill="#23A8E0"></path>
                    <polygon id="Fill-19" fill="#FFFFFF" points="18.1363636 62.0967742 51.8181818 62.0967742 51.8181818 56.7741935 18.1363636 56.7741935"></polygon>
                    <polygon id="Fill-20" fill="#FFFFFF" points="1 73.9247312 34.6818182 73.9247312 34.6818182 68.6021505 1 68.6021505"></polygon>
                    <polygon id="Fill-21" fill="#1D1D1D" points="1 13.0107527 51.8181818 13.0107527 51.8181818 7.68817204 1 7.68817204"></polygon>
                </g>
            </g>
            <g id="Group-2" transform="translate(3.000000, 74.000000)" stroke="#1D1D1D" stroke-width="3" stroke-linecap="round">
                <path d="M0,1.5 L28.6923128,1.5" id="Line"></path>
                <path d="M0,9.5 L28.6923128,9.5" id="Line-Copy"></path>
                <path d="M0,17.5 L28.6923128,17.5" id="Line-Copy-2"></path>
            </g>
            <g id="Group-4" transform="translate(4.000000, 275.000000)">
                <rect id="Rectangle-12" fill="#B09263" x="4" y="11" width="8" height="6"></rect>
                <path d="M13,7 L13,5 C13,2.24 10.76,0 8,0 C5.24,0 3,2.24 3,5 L3,7 L2,7 C0.9,7 0,7.9 0,9 L0,19 C0,20.1 0.9,21 2,21 L14,21 C15.1,21 16,20.1 16,19 L16,9 C16,7.9 15.1,7 14,7 L13,7 Z M8,16 C6.9,16 6,15.1 6,14 C6,12.9 6.9,12 8,12 C9.1,12 10,12.9 10,14 C10,15.1 9.1,16 8,16 L8,16 Z M11.1,7 L4.9,7 L4.9,5 C4.9,3.29 6.29,1.9 8,1.9 C9.71,1.9 11.1,3.29 11.1,5 L11.1,7 L11.1,7 Z" id="Shape" fill="#1D1D1D"></path>
            </g>
            <polygon id="Rectangle" fill="#B09263" points="46 367 47.9697266 367 52 371.320312 52 375 46 375"></polygon>
            <g id="checkout-cart" transform="translate(4.000000, 304.373333)">
                <polyline id="Line" stroke="#1D1D1D" stroke-width="3" stroke-linecap="round" stroke-linejoin="round" points="0 13.0825195 5.01806641 13 13.0180664 30 32.5897103 30 36.2504883 17.1210938"></polyline>
                <polyline id="Line" stroke="#1D1D1D" stroke-width="3" stroke-linecap="round" stroke-linejoin="round" transform="translate(22.715820, 33.896266) rotate(-3.000000) translate(-22.715820, -33.896266) " points="13.2182635 29.4771315 16.2182635 37.4771315 32.2133771 38.3153998"></polyline>
                <use id="Oval-3" stroke="#1D1D1D" mask="url(#mask-2)" stroke-width="4" stroke-linecap="round" stroke-linejoin="round" fill="#FFFFFF" xlink:href="#path-1"></use>
                <use id="Oval-3-Copy" stroke="#1D1D1D" mask="url(#mask-4)" stroke-width="4" stroke-linecap="round" stroke-linejoin="round" fill="#FFFFFF" xlink:href="#path-3"></use>
                <g id="Group-3" transform="translate(20.390465, 15.000000) rotate(-23.000000) translate(-20.390465, -15.000000) translate(11.390465, 3.500000)">
                    <g id="Group-5" transform="translate(0.000000, -0.000000)">
                        <path d="M0,6.44520982 C0,4.23695376 1.79171562,2.44680851 3.9947834,2.44680851 L18,2.44680851 L18,22.7462569 L3.9947834,22.7462569 C1.78852545,22.7462569 0,20.9626074 0,18.7478556 L0,6.44520982 Z" id="Rectangle-5-Copy" fill="#1D1D1D"></path>
                        <path d="M0.972972973,5.46648642 C0.972972973,3.25823035 2.76784669,1.46808511 4.98267637,1.46808511 L17.027027,1.46808511 L17.027027,21.7675335 L4.98267637,21.7675335 C2.76817833,21.7675335 0.972972973,19.983884 0.972972973,17.7691322 L0.972972973,5.46648642 Z" id="white" fill="#FFFFFF"></path>
                        <path d="M0,2.00194399 C0,0.896300854 0.904266899,0 2.00331727,0 L15.5675676,0 L15.5675676,20.2994484 L2.00331727,20.2994484 C0.896915691,20.2994484 0,19.401014 0,18.2975044 L0,2.00194399 Z" id="Rectangle-5" fill="#1D1D1D"></path>
                    </g>
                    <path d="M3.65599268,8.94932602 C3.65599268,7.47656668 4.84990002,6.28265935 6.32265935,6.28265935 C7.79541868,6.28265935 8.98932602,7.47656668 8.98932602,8.94932602 C10.4620853,8.94932602 11.6559927,10.1432334 11.6559927,11.6159927 C11.6559927,13.088752 10.4620853,14.2826593 8.98932602,14.2826593 L3.65599268,14.2826593 L3.65599268,8.94932602 Z" id="Combined-Shape" fill="#B09263" transform="translate(7.655993, 10.282659) rotate(-44.000000) translate(-7.655993, -10.282659) "></path>
                </g>
            </g>
            <path d="M19,366.611643 C19,362.742901 22.1321332,359.606667 25.9990441,359.606667 L45.1818182,359.606667 L45.1818182,380.731667 L19,380.731667 L19,366.611643 Z" id="Rectangle-10" fill="#171717"></path>
            <use id="Rectangle-11" stroke="#171717" mask="url(#mask-6)" stroke-width="4" xlink:href="#path-5"></use>
            <polygon id="Rectangle-11" fill="#171717" points="53.4946875 373 54.8181818 380.641546 45 380.641546 45 373"></polygon>
            <ellipse id="Oval-3" stroke="#1D1D1D" stroke-width="2" stroke-linecap="round" stroke-linejoin="round" fill="#FFFFFF" cx="26.2727273" cy="381.25" rx="3.27272727" ry="3.25"></ellipse>
            <ellipse id="Oval-3-Copy" stroke="#1D1D1D" stroke-width="2" stroke-linecap="round" stroke-linejoin="round" fill="#FFFFFF" cx="47.2727273" cy="381.25" rx="3.27272727" ry="3.25"></ellipse>
            <path d="M4,367 L10.3890625,367 M14.065625,367 L17,367" id="Line" stroke="#171717" stroke-width="2" stroke-linecap="round"></path>
            <path d="M4,377 L10.3890625,377 M14.065625,377 L17,377" id="Line-Copy-3" stroke="#171717" stroke-width="2" stroke-linecap="round"></path>
            <path d="M2,372 L8.3890625,372 M12.065625,372 L15,372" id="Line" stroke="#171717" stroke-width="2" stroke-linecap="round" transform="translate(8.500000, 372.000000) scale(-1, 1) translate(-8.500000, -372.000000) "></path>
        </g>
    </g>
</svg>