<?xml version="1.0" encoding="UTF-8" standalone="no"?>
<svg width="22px" height="13px" viewBox="0 0 22 13" version="1.1" xmlns="http://www.w3.org/2000/svg" xmlns:xlink="http://www.w3.org/1999/xlink">
    <!-- Generator: Sketch 41.2 (35397) - http://www.bohemiancoding.com/sketch -->
    <title>b_sprite</title>
    <desc>Created with Sketch.</desc>
    <defs></defs>
    <g id="Page-1" stroke="none" stroke-width="1" fill="none" fill-rule="evenodd">
        <g id="b_sprite" fill="#1D1D1D">
            <path d="M15.14,7.92333333 L15.14,11.2233333 C15.14,11.4433333 15.195,11.5733333 15.305,11.6133333 C15.415,11.6533333 15.54,11.6033333 15.68,11.4633333 L19.76,7.35333333 C19.92,7.21333333 20,7.03333333 20,6.81333333 C20,6.59333333 19.92,6.41333333 19.76,6.27333333 L15.68,2.16333333 C15.54,2.02333333 15.415,1.97333333 15.305,2.01333333 C15.195,2.05333333 15.14,2.18333333 15.14,2.40333333 L15.14,5.70333333 L2.78,5.70333333 C2.56,5.70333333 2.375,5.77833333 2.225,5.92833333 C2.075,6.07833333 2,6.25333333 2,6.45333333 L2,7.14333333 C2,7.36333333 2.075,7.54833333 2.225,7.69833333 C2.375,7.84833333 2.56,7.92333333 2.78,7.92333333 L15.14,7.92333333 Z" id="arrow"></path>
        </g>
    </g>
</svg>