<?xml version="1.0" encoding="UTF-8" standalone="no"?>
<svg width="36px" height="38px" viewBox="0 0 36 38" version="1.1" xmlns="http://www.w3.org/2000/svg" xmlns:xlink="http://www.w3.org/1999/xlink">
    <!-- Generator: Sketch 41.2 (35397) - http://www.bohemiancoding.com/sketch -->
    <title>drag_arrow</title>
    <desc>Created with Sketch.</desc>
    <defs></defs>
    <g id="Page-1" stroke="none" stroke-width="1" fill="none" fill-rule="evenodd">
        <g id="drag_arrow" fill="#1D1D1D">
            <g id="Group" transform="translate(1.000000, 14.000000)">
                <path d="M29.14,5.92333333 L29.14,9.22333333 C29.14,9.44333333 29.195,9.57333333 29.305,9.61333333 C29.415,9.65333333 29.54,9.60333333 29.68,9.46333333 L33.76,5.35333333 C33.92,5.21333333 34,5.03333333 34,4.81333333 C34,4.59333333 33.92,4.41333333 33.76,4.27333333 L29.68,0.163333333 C29.54,0.0233333333 29.415,-0.0266666667 29.305,0.0133333333 C29.195,0.0533333333 29.14,0.183333333 29.14,0.403333333 L29.14,3.70333333 L16.78,3.70333333 C16.56,3.70333333 16.375,3.77833333 16.225,3.92833333 C16.075,4.07833333 16,4.25333333 16,4.45333333 L16,5.14333333 C16,5.36333333 16.075,5.54833333 16.225,5.69833333 C16.375,5.84833333 16.56,5.92333333 16.78,5.92333333 L29.14,5.92333333 Z" id="arrow-copy"></path>
                <path d="M13.14,5.92333333 L13.14,9.22333333 C13.14,9.44333333 13.195,9.57333333 13.305,9.61333333 C13.415,9.65333333 13.54,9.60333333 13.68,9.46333333 L17.76,5.35333333 C17.92,5.21333333 18,5.03333333 18,4.81333333 C18,4.59333333 17.92,4.41333333 17.76,4.27333333 L13.68,0.163333333 C13.54,0.0233333333 13.415,-0.0266666667 13.305,0.0133333333 C13.195,0.0533333333 13.14,0.183333333 13.14,0.403333333 L13.14,3.70333333 L0.78,3.70333333 C0.56,3.70333333 0.375,3.77833333 0.225,3.92833333 C0.075,4.07833333 0,4.25333333 0,4.45333333 L0,5.14333333 C0,5.36333333 0.075,5.54833333 0.225,5.69833333 C0.375,5.84833333 0.56,5.92333333 0.78,5.92333333 L13.14,5.92333333 Z" id="arrow-copy-2" transform="translate(9.000000, 4.813333) scale(-1, 1) translate(-9.000000, -4.813333) "></path>
            </g>
            <g id="Group-Copy" transform="translate(18.000000, 19.000000) rotate(-270.000000) translate(-18.000000, -19.000000) translate(1.000000, 14.000000)">
                <path d="M29.14,5.92333333 L29.14,9.22333333 C29.14,9.44333333 29.195,9.57333333 29.305,9.61333333 C29.415,9.65333333 29.54,9.60333333 29.68,9.46333333 L33.76,5.35333333 C33.92,5.21333333 34,5.03333333 34,4.81333333 C34,4.59333333 33.92,4.41333333 33.76,4.27333333 L29.68,0.163333333 C29.54,0.0233333333 29.415,-0.0266666667 29.305,0.0133333333 C29.195,0.0533333333 29.14,0.183333333 29.14,0.403333333 L29.14,3.70333333 L16.78,3.70333333 C16.56,3.70333333 16.375,3.77833333 16.225,3.92833333 C16.075,4.07833333 16,4.25333333 16,4.45333333 L16,5.14333333 C16,5.36333333 16.075,5.54833333 16.225,5.69833333 C16.375,5.84833333 16.56,5.92333333 16.78,5.92333333 L29.14,5.92333333 Z" id="arrow-copy"></path>
                <path d="M13.14,5.92333333 L13.14,9.22333333 C13.14,9.44333333 13.195,9.57333333 13.305,9.61333333 C13.415,9.65333333 13.54,9.60333333 13.68,9.46333333 L17.76,5.35333333 C17.92,5.21333333 18,5.03333333 18,4.81333333 C18,4.59333333 17.92,4.41333333 17.76,4.27333333 L13.68,0.163333333 C13.54,0.0233333333 13.415,-0.0266666667 13.305,0.0133333333 C13.195,0.0533333333 13.14,0.183333333 13.14,0.403333333 L13.14,3.70333333 L0.78,3.70333333 C0.56,3.70333333 0.375,3.77833333 0.225,3.92833333 C0.075,4.07833333 -3.55271368e-15,4.25333333 -3.55271368e-15,4.45333333 L-3.55271368e-15,5.14333333 C-3.55271368e-15,5.36333333 0.075,5.54833333 0.225,5.69833333 C0.375,5.84833333 0.56,5.92333333 0.78,5.92333333 L13.14,5.92333333 Z" id="arrow-copy-2" transform="translate(9.000000, 4.813333) scale(-1, 1) translate(-9.000000, -4.813333) "></path>
            </g>
        </g>
    </g>
</svg>