<?xml version="1.0" encoding="UTF-8" standalone="no"?>
<svg width="327px" height="44px" viewBox="0 0 327 44" version="1.1" xmlns="http://www.w3.org/2000/svg" xmlns:xlink="http://www.w3.org/1999/xlink">
    <!-- Generator: Sketch 41.2 (35397) - http://www.bohemiancoding.com/sketch -->
    <g id="Page-1" stroke="none" stroke-width="1" fill="none" fill-rule="evenodd">
        <g id="logo" fill="#1D1D1D">
            <path d="M6.06445312,12.9570312 L17.6582031,12.9570312 C19.5905045,12.9570312 21.0738881,13.4355421 22.1083984,14.3925781 C23.1429088,15.3496142 23.6601562,16.5344981 23.6601562,17.9472656 C23.6601562,19.1321674 23.2910193,20.1484333 22.5527344,20.9960938 C22.0605444,21.5612007 21.3404995,22.0078109 20.3925781,22.3359375 C21.8326895,22.6822934 22.8922492,23.277014 23.5712891,24.1201172 C24.2503289,24.9632204 24.5898438,26.0227801 24.5898438,27.2988281 C24.5898438,28.3378958 24.3483097,29.2721313 23.8652344,30.1015625 C23.382159,30.9309937 22.7213584,31.5872372 21.8828125,32.0703125 C21.3632787,32.3710953 20.5794323,32.5898431 19.53125,32.7265625 C18.1367118,32.9088551 17.2115908,33 16.7558594,33 L6.06445312,33 L6.06445312,12.9570312 Z M12.3125,20.8183594 L15.0058594,20.8183594 C15.97201,20.8183594 16.6442038,20.6520199 17.0224609,20.3193359 C17.400718,19.986652 17.5898438,19.5058625 17.5898438,18.8769531 C17.5898438,18.2936169 17.400718,17.8378923 17.0224609,17.5097656 C16.6442038,17.181639 15.9856818,17.0175781 15.046875,17.0175781 L12.3125,17.0175781 L12.3125,20.8183594 Z M12.3125,28.6933594 L15.4707031,28.6933594 C16.5371147,28.6933594 17.2890603,28.5042337 17.7265625,28.1259766 C18.1640647,27.7477195 18.3828125,27.2395865 18.3828125,26.6015625 C18.3828125,26.0091116 18.1663433,25.5328794 17.7333984,25.1728516 C17.3004536,24.8128237 16.5416721,24.6328125 15.4570312,24.6328125 L12.3125,24.6328125 L12.3125,28.6933594 Z M43.5800781,27.1210938 L32.4238281,27.1210938 C32.524089,28.0143274 32.7656231,28.6796853 33.1484375,29.1171875 C33.6862006,29.7460969 34.3880165,30.0605469 35.2539062,30.0605469 C35.800784,30.0605469 36.32031,29.9238295 36.8125,29.6503906 C37.1132828,29.4772127 37.4368472,29.1718772 37.7832031,28.734375 L43.265625,29.2402344 C42.4270791,30.698575 41.4153705,31.744463 40.2304688,32.3779297 C39.045567,33.0113964 37.3457142,33.328125 35.1308594,33.328125 C33.2076727,33.328125 31.694667,33.0569689 30.5917969,32.5146484 C29.4889268,31.972328 28.5751989,31.1110085 27.8505859,29.9306641 C27.1259729,28.7503196 26.7636719,27.3626382 26.7636719,25.7675781 C26.7636719,23.4980355 27.4905526,21.6614654 28.9443359,20.2578125 C30.3981192,18.8541596 32.4055862,18.1523438 34.9667969,18.1523438 C37.0449323,18.1523438 38.6855409,18.4667937 39.8886719,19.0957031 C41.0918029,19.7246125 42.0078094,20.6360617 42.6367188,21.8300781 C43.2656281,23.0240945 43.5800781,24.5781154 43.5800781,26.4921875 L43.5800781,27.1210938 Z M37.9199219,24.4550781 C37.8105463,23.3795519 37.5211612,22.6093773 37.0517578,22.1445312 C36.5823544,21.6796852 35.9648476,21.4472656 35.1992188,21.4472656 C34.3150997,21.4472656 33.6087266,21.7981736 33.0800781,22.5 C32.7428369,22.9375022 32.5286463,23.5891884 32.4375,24.4550781 L37.9199219,24.4550781 Z M52.8496094,12.9570312 L52.8496094,18.4804688 L55.9121094,18.4804688 L55.9121094,22.5410156 L52.8496094,22.5410156 L52.8496094,27.6953125 C52.8496094,28.3151073 52.9088536,28.7252594 53.0273438,28.9257812 C53.2096363,29.2356786 53.5286436,29.390625 53.984375,29.390625 C54.3945333,29.390625 54.9687463,29.2721366 55.7070312,29.0351562 L56.1171875,32.8769531 C54.7408785,33.1777359 53.4557351,33.328125 52.2617188,33.328125 C50.8762952,33.328125 49.855472,33.1503924 49.1992188,32.7949219 C48.5429655,32.4394513 48.0576188,31.8994177 47.7431641,31.1748047 C47.4287094,30.4501917 47.2714844,29.2767008 47.2714844,27.6542969 L47.2714844,22.5410156 L45.2207031,22.5410156 L45.2207031,18.4804688 L47.2714844,18.4804688 L47.2714844,15.8144531 L52.8496094,12.9570312 Z M65.2773438,12.9570312 L65.2773438,18.4804688 L68.3398438,18.4804688 L68.3398438,22.5410156 L65.2773438,22.5410156 L65.2773438,27.6953125 C65.2773438,28.3151073 65.3365879,28.7252594 65.4550781,28.9257812 C65.6373707,29.2356786 65.9563779,29.390625 66.4121094,29.390625 C66.8222677,29.390625 67.3964807,29.2721366 68.1347656,29.0351562 L68.5449219,32.8769531 C67.1686129,33.1777359 65.8834695,33.328125 64.6894531,33.328125 C63.3040295,33.328125 62.2832064,33.1503924 61.6269531,32.7949219 C60.9706998,32.4394513 60.4853531,31.8994177 60.1708984,31.1748047 C59.8564437,30.4501917 59.6992188,29.2767008 59.6992188,27.6542969 L59.6992188,22.5410156 L57.6484375,22.5410156 L57.6484375,18.4804688 L59.6992188,18.4804688 L59.6992188,15.8144531 L65.2773438,12.9570312 Z M71.1972656,12.9570312 L76.7617188,12.9570312 L76.7617188,16.7441406 L71.1972656,16.7441406 L71.1972656,12.9570312 Z M71.1972656,18.4804688 L76.7617188,18.4804688 L76.7617188,33 L71.1972656,33 L71.1972656,18.4804688 Z M80.3164062,18.4804688 L85.4980469,18.4804688 L85.4980469,20.8457031 C86.2727903,19.8795525 87.0566367,19.1891297 87.8496094,18.7744141 C88.6425821,18.3596984 89.6087183,18.1523438 90.7480469,18.1523438 C92.2884192,18.1523438 93.4938108,18.610347 94.3642578,19.5263672 C95.2347049,20.4423874 95.6699219,21.8574123 95.6699219,23.7714844 L95.6699219,33 L90.078125,33 L90.078125,25.015625 C90.078125,24.1041621 89.9095069,23.4593118 89.5722656,23.0810547 C89.2350244,22.7027976 88.7610708,22.5136719 88.1503906,22.5136719 C87.4759081,22.5136719 86.9290386,22.7688777 86.5097656,23.2792969 C86.0904927,23.7897161 85.8808594,24.7057226 85.8808594,26.0273438 L85.8808594,33 L80.3164062,33 L80.3164062,18.4804688 Z M104.064453,23.1835938 L98.7460938,22.6230469 C98.9466156,21.6933547 99.2360007,20.9619167 99.6142578,20.4287109 C99.9925149,19.8955051 100.537106,19.4329447 101.248047,19.0410156 C101.758466,18.7584621 102.460282,18.5397143 103.353516,18.3847656 C104.246749,18.2298169 105.212885,18.1523438 106.251953,18.1523438 C107.91993,18.1523438 109.259761,18.2457673 110.271484,18.4326172 C111.283208,18.6194671 112.126299,19.0091116 112.800781,19.6015625 C113.274742,20.0117208 113.648436,20.5927697 113.921875,21.3447266 C114.195314,22.0966834 114.332031,22.8144497 114.332031,23.4980469 L114.332031,29.9101562 C114.332031,30.5937534 114.375325,31.1292298 114.461914,31.5166016 C114.548503,31.9039733 114.737629,32.3984345 115.029297,33 L109.806641,33 C109.597004,32.6263002 109.460287,32.3414723 109.396484,32.1455078 C109.332682,31.9495433 109.268881,31.6419292 109.205078,31.2226562 C108.475908,31.9244827 107.751306,32.4257797 107.03125,32.7265625 C106.04687,33.1276062 104.903001,33.328125 103.599609,33.328125 C101.86783,33.328125 100.553064,32.9270873 99.6552734,32.125 C98.7574825,31.3229127 98.3085938,30.3339903 98.3085938,29.1582031 C98.3085938,28.055333 98.6321582,27.1484411 99.2792969,26.4375 C99.9264355,25.7265589 101.120434,25.1979184 102.861328,24.8515625 C104.948578,24.4322896 106.30208,24.1383472 106.921875,23.9697266 C107.54167,23.8011059 108.197913,23.5800795 108.890625,23.3066406 C108.890625,22.6230435 108.74935,22.1445326 108.466797,21.8710938 C108.184243,21.5976549 107.687504,21.4609375 106.976562,21.4609375 C106.0651,21.4609375 105.381513,21.6067694 104.925781,21.8984375 C104.570311,22.1263032 104.283204,22.5546844 104.064453,23.1835938 Z M108.890625,26.109375 C108.124996,26.3828139 107.327478,26.6243479 106.498047,26.8339844 C105.367833,27.1347671 104.652345,27.4309881 104.351562,27.7226562 C104.041665,28.023439 103.886719,28.3652325 103.886719,28.7480469 C103.886719,29.1855491 104.039386,29.5432929 104.344727,29.8212891 C104.650067,30.0992852 105.098955,30.2382812 105.691406,30.2382812 C106.311201,30.2382812 106.887693,30.0878921 107.420898,29.7871094 C107.954104,29.4863266 108.332356,29.1194683 108.555664,28.6865234 C108.778972,28.2535786 108.890625,27.6907587 108.890625,26.9980469 L108.890625,26.109375 Z M126.294922,26.3691406 L132.1875,26 C132.315105,26.957036 132.574868,27.6861954 132.966797,28.1875 C133.604821,28.998702 134.51627,29.4042969 135.701172,29.4042969 C136.585291,29.4042969 137.266599,29.1969422 137.745117,28.7822266 C138.223635,28.3675109 138.462891,27.8867215 138.462891,27.3398438 C138.462891,26.8203099 138.235028,26.3554708 137.779297,25.9453125 C137.323565,25.5351542 136.266284,25.1477883 134.607422,24.7832031 C131.891262,24.172523 129.954433,23.3613332 128.796875,22.3496094 C127.630202,21.3378856 127.046875,20.0481849 127.046875,18.4804688 C127.046875,17.4505157 127.345375,16.4775436 127.942383,15.5615234 C128.539391,14.6455032 129.437168,13.9254583 130.635742,13.4013672 C131.834316,12.877276 133.477203,12.6152344 135.564453,12.6152344 C138.125664,12.6152344 140.078444,13.0914666 141.422852,14.0439453 C142.767259,14.996424 143.567056,16.5117084 143.822266,18.5898438 L137.984375,18.9316406 C137.829426,18.0292924 137.503583,17.3730489 137.006836,16.9628906 C136.510089,16.5527323 135.824223,16.3476562 134.949219,16.3476562 C134.229163,16.3476562 133.686851,16.500324 133.322266,16.8056641 C132.95768,17.1110041 132.775391,17.4824197 132.775391,17.9199219 C132.775391,18.2389339 132.92578,18.5260404 133.226562,18.78125 C133.518231,19.0455742 134.210932,19.2916655 135.304688,19.5195312 C138.011732,20.1028675 139.95084,20.6930309 141.12207,21.2900391 C142.2933,21.8870473 143.145505,22.6275997 143.678711,23.5117188 C144.211917,24.3958378 144.478516,25.3847602 144.478516,26.4785156 C144.478516,27.7636783 144.12305,28.9485623 143.412109,30.0332031 C142.701168,31.117844 141.707689,31.9404269 140.431641,32.5009766 C139.155593,33.0615262 137.546885,33.3417969 135.605469,33.3417969 C132.196598,33.3417969 129.835944,32.6855534 128.523438,31.3730469 C127.210931,30.0605403 126.4681,28.3925882 126.294922,26.3691406 Z M153.939453,12.9570312 L153.939453,18.4804688 L157.001953,18.4804688 L157.001953,22.5410156 L153.939453,22.5410156 L153.939453,27.6953125 C153.939453,28.3151073 153.998697,28.7252594 154.117188,28.9257812 C154.29948,29.2356786 154.618487,29.390625 155.074219,29.390625 C155.484377,29.390625 156.05859,29.2721366 156.796875,29.0351562 L157.207031,32.8769531 C155.830722,33.1777359 154.545579,33.328125 153.351562,33.328125 C151.966139,33.328125 150.945316,33.1503924 150.289062,32.7949219 C149.632809,32.4394513 149.147463,31.8994177 148.833008,31.1748047 C148.518553,30.4501917 148.361328,29.2767008 148.361328,27.6542969 L148.361328,22.5410156 L146.310547,22.5410156 L146.310547,18.4804688 L148.361328,18.4804688 L148.361328,15.8144531 L153.939453,12.9570312 Z M159.859375,12.9570312 L165.423828,12.9570312 L165.423828,16.7441406 L159.859375,16.7441406 L159.859375,12.9570312 Z M159.859375,18.4804688 L165.423828,18.4804688 L165.423828,33 L159.859375,33 L159.859375,18.4804688 Z M168.978516,18.4804688 L174.160156,18.4804688 L174.160156,20.8457031 C174.9349,19.8795525 175.718746,19.1891297 176.511719,18.7744141 C177.304691,18.3596984 178.270828,18.1523438 179.410156,18.1523438 C180.950529,18.1523438 182.15592,18.610347 183.026367,19.5263672 C183.896814,20.4423874 184.332031,21.8574123 184.332031,23.7714844 L184.332031,33 L178.740234,33 L178.740234,25.015625 C178.740234,24.1041621 178.571616,23.4593118 178.234375,23.0810547 C177.897134,22.7027976 177.42318,22.5136719 176.8125,22.5136719 C176.138017,22.5136719 175.591148,22.7688777 175.171875,23.2792969 C174.752602,23.7897161 174.542969,24.7057226 174.542969,26.0273438 L174.542969,33 L168.978516,33 L168.978516,18.4804688 Z M197.757812,18.4804688 L202.966797,18.4804688 L202.966797,32.1933594 L202.980469,32.8359375 C202.980469,33.7474004 202.786786,34.6155558 202.399414,35.4404297 C202.012042,36.2653036 201.497074,36.9329402 200.854492,37.4433594 C200.211911,37.9537786 199.396164,38.3229155 198.407227,38.5507812 C197.418289,38.778647 196.285814,38.8925781 195.009766,38.8925781 C192.093084,38.8925781 190.090175,38.4550825 189.000977,37.5800781 C187.911778,36.7050737 187.367188,35.5338615 187.367188,34.0664062 C187.367188,33.8841137 187.376302,33.6380224 187.394531,33.328125 L192.794922,33.9433594 C192.931641,34.444664 193.141275,34.7910147 193.423828,34.9824219 C193.833986,35.2649754 194.348955,35.40625 194.96875,35.40625 C195.770837,35.40625 196.370115,35.1920594 196.766602,34.7636719 C197.163088,34.3352843 197.361328,33.587896 197.361328,32.5214844 L197.361328,30.3203125 C196.81445,30.9674512 196.267581,31.4368475 195.720703,31.7285156 C194.863928,32.1842471 193.938807,32.4121094 192.945312,32.4121094 C191.003897,32.4121094 189.436204,31.5644616 188.242188,29.8691406 C187.394527,28.6660096 186.970703,27.0755307 186.970703,25.0976562 C186.970703,22.8372283 187.517573,21.1145893 188.611328,19.9296875 C189.705084,18.7447857 191.136059,18.1523438 192.904297,18.1523438 C194.034511,18.1523438 194.966468,18.3437481 195.700195,18.7265625 C196.433923,19.1093769 197.119788,19.7428341 197.757812,20.6269531 L197.757812,18.4804688 Z M192.521484,25.5214844 C192.521484,26.5696667 192.744789,27.3466772 193.191406,27.8525391 C193.638023,28.358401 194.225908,28.6113281 194.955078,28.6113281 C195.64779,28.6113281 196.228839,28.3492865 196.698242,27.8251953 C197.167646,27.3011042 197.402344,26.510422 197.402344,25.453125 C197.402344,24.395828 197.156252,23.5869169 196.664062,23.0263672 C196.171873,22.4658175 195.570316,22.1855469 194.859375,22.1855469 C194.148434,22.1855469 193.581057,22.4430313 193.157227,22.9580078 C192.733396,23.4729843 192.521484,24.327468 192.521484,25.5214844 Z M222.449219,27.1210938 L211.292969,27.1210938 C211.39323,28.0143274 211.634764,28.6796853 212.017578,29.1171875 C212.555341,29.7460969 213.257157,30.0605469 214.123047,30.0605469 C214.669925,30.0605469 215.189451,29.9238295 215.681641,29.6503906 C215.982423,29.4772127 216.305988,29.1718772 216.652344,28.734375 L222.134766,29.2402344 C221.29622,30.698575 220.284511,31.744463 219.099609,32.3779297 C217.914708,33.0113964 216.214855,33.328125 214,33.328125 C212.076813,33.328125 210.563808,33.0569689 209.460938,32.5146484 C208.358067,31.972328 207.44434,31.1110085 206.719727,29.9306641 C205.995114,28.7503196 205.632812,27.3626382 205.632812,25.7675781 C205.632812,23.4980355 206.359693,21.6614654 207.813477,20.2578125 C209.26726,18.8541596 211.274727,18.1523438 213.835938,18.1523438 C215.914073,18.1523438 217.554681,18.4667937 218.757812,19.0957031 C219.960944,19.7246125 220.87695,20.6360617 221.505859,21.8300781 C222.134769,23.0240945 222.449219,24.5781154 222.449219,26.4921875 L222.449219,27.1210938 Z M216.789062,24.4550781 C216.679687,23.3795519 216.390302,22.6093773 215.920898,22.1445312 C215.451495,21.6796852 214.833988,21.4472656 214.068359,21.4472656 C213.18424,21.4472656 212.477867,21.7981736 211.949219,22.5 C211.611977,22.9375022 211.397787,23.5891884 211.306641,24.4550781 L216.789062,24.4550781 Z M225.197266,12.9570312 L230.775391,12.9570312 L230.775391,33 L225.197266,33 L225.197266,12.9570312 Z M234.535156,12.9570312 L240.099609,12.9570312 L240.099609,16.7441406 L234.535156,16.7441406 L234.535156,12.9570312 Z M234.535156,18.4804688 L240.099609,18.4804688 L240.099609,33 L234.535156,33 L234.535156,18.4804688 Z M243.654297,18.4804688 L248.835938,18.4804688 L248.835938,20.8457031 C249.610681,19.8795525 250.394527,19.1891297 251.1875,18.7744141 C251.980473,18.3596984 252.946609,18.1523438 254.085938,18.1523438 C255.62631,18.1523438 256.831701,18.610347 257.702148,19.5263672 C258.572595,20.4423874 259.007812,21.8574123 259.007812,23.7714844 L259.007812,33 L253.416016,33 L253.416016,25.015625 C253.416016,24.1041621 253.247398,23.4593118 252.910156,23.0810547 C252.572915,22.7027976 252.098961,22.5136719 251.488281,22.5136719 C250.813799,22.5136719 250.266929,22.7688777 249.847656,23.2792969 C249.428383,23.7897161 249.21875,24.7057226 249.21875,26.0273438 L249.21875,33 L243.654297,33 L243.654297,18.4804688 Z" id="Bettina-Stingelin"></path>
            <path d="M271.78,18.78 C272.020001,19.6800045 272.229999,20.6199951 272.41,21.6 C272.590001,22.5800049 272.774999,23.7849929 272.965,25.215 C273.155001,26.6450071 273.29,27.5799978 273.37,28.02 C273.43,28.420002 273.519999,29.1399948 273.64,30.18 C273.960002,28.9199937 274.269998,27.8100048 274.57,26.85 C274.950002,25.649994 275.309998,24.7200033 275.65,24.06 C275.870001,23.659998 276.079999,23.3500011 276.28,23.13 C276.620002,22.8099984 276.979998,22.7099994 277.36,22.83 C277.620001,22.9100004 277.869999,23.1299982 278.11,23.49 C278.270001,23.7300012 278.449999,24.0699978 278.65,24.51 C278.950001,25.1700033 279.279998,26.0899941 279.64,27.27 C279.820001,27.870003 280.029999,28.6299954 280.27,29.55 C280.27,29.2099983 280.28,28.8700017 280.3,28.53 C280.460001,25.7699862 281.079995,22.5000189 282.16,18.72 C282.2,18.5799993 282.284999,18.4750003 282.415,18.405 C282.545001,18.3349997 282.679999,18.3199998 282.82,18.36 C282.960001,18.4000002 283.065,18.4849994 283.135,18.615 C283.205,18.7450007 283.22,18.8799993 283.18,19.02 C282.119995,22.7400186 281.520001,25.9299867 281.38,28.59 C281.34,29.1100026 281.34,29.6899968 281.38,30.33 C281.44,31.2900048 281.47,31.9199985 281.47,32.22 L281.47,32.31 C281.49,32.4100005 281.5,32.4899997 281.5,32.55 C281.52,32.6900007 281.51,32.8099995 281.47,32.91 C281.39,33.1500012 281.230001,33.2999997 280.99,33.36 C280.629998,33.4200003 280.350001,33.2700018 280.15,32.91 C280.13,32.8699998 280.08,32.7300012 280,32.49 C279.899999,32.2299987 279.710001,31.5700053 279.43,30.51 L278.59,27.6 C278.249998,26.4399942 277.940001,25.5500031 277.66,24.93 C277.499999,24.5699982 277.350001,24.290001 277.21,24.09 C277.15,24.0099996 277.1,23.9500002 277.06,23.91 L277.03,23.91 C276.909999,24.0300006 276.770001,24.2499984 276.61,24.57 C276.289998,25.1500029 275.950002,26.0199942 275.59,27.18 C275.189998,28.4000061 274.760002,30.0199899 274.3,32.04 C274.28,32.0600001 274.27,32.1099996 274.27,32.19 C274.25,32.3300007 274.24,32.4299997 274.24,32.49 C274.18,32.9100021 273.980002,33.1699995 273.64,33.27 C273.379999,33.3500004 273.170001,33.2700012 273.01,33.03 C272.97,32.9699997 272.93,32.8900005 272.89,32.79 C272.87,32.6899995 272.84,32.5500009 272.8,32.37 C272.76,32.1099987 272.71,31.6900029 272.65,31.11 C272.449999,29.4499917 272.33,28.4800014 272.29,28.2 C272.21,27.6999975 272.075001,26.750007 271.885,25.35 C271.694999,23.949993 271.515001,22.7750048 271.345,21.825 C271.174999,20.8749952 270.980001,19.9600044 270.76,19.08 C270.72,18.9199992 270.735,18.7800006 270.805,18.66 C270.875,18.5399994 270.984999,18.4600002 271.135,18.42 C271.285001,18.3799998 271.419999,18.3949996 271.54,18.465 C271.660001,18.5350003 271.74,18.6399993 271.78,18.78 Z M284.68,32.88 L284.68,31.89 C284.66,31.8499998 284.65,31.8100002 284.65,31.77 L284.65,30.6 C284.65,30.2199981 284.645,29.5450049 284.635,28.575 C284.625,27.6049952 284.62,26.8600026 284.62,26.34 C284.64,25.2799947 284.68,23.6300112 284.74,21.39 C284.74,21.2499993 284.794999,21.1300005 284.905,21.03 C285.015001,20.9299995 285.144999,20.88 285.295,20.88 C285.445001,20.88 285.569999,20.9349995 285.67,21.045 C285.77,21.1550006 285.82,21.2899992 285.82,21.45 C285.78,22.9100073 285.75,23.9699967 285.73,24.63 L285.79,24.45 C286.870005,21.2299839 288.629988,19.0800054 291.07,18 C291.190001,17.9399997 291.319999,17.9349997 291.46,17.985 C291.600001,18.0350003 291.7,18.1249994 291.76,18.255 C291.82,18.3850007 291.825,18.5199993 291.775,18.66 C291.725,18.8000007 291.630001,18.8999997 291.49,18.96 C289.309989,19.9400049 287.750005,21.8799855 286.81,24.78 C286.149997,26.8400103 285.8,29.369985 285.76,32.37 L285.76,32.91 C285.76,32.9300001 285.75,32.9499999 285.73,32.97 C285.73,33.0300003 285.7,33.0999996 285.64,33.18 C285.54,33.3000006 285.410001,33.36 285.25,33.36 C285.069999,33.3800001 284.920001,33.3200007 284.8,33.18 C284.74,33.0999996 284.71,33.0300003 284.71,32.97 C284.69,32.9499999 284.68,32.9200002 284.68,32.88 Z M293.8,18.9 C293.639999,24.8200296 293.789998,29.5099827 294.25,32.97 C294.27,33.1100007 294.235,33.2399994 294.145,33.36 C294.055,33.4800006 293.935001,33.5499999 293.785,33.57 C293.634999,33.5900001 293.500001,33.5550005 293.38,33.465 C293.259999,33.3749995 293.19,33.2500008 293.17,33.09 C292.709998,29.5099821 292.559999,24.7800294 292.72,18.9 C292.72,18.7399992 292.774999,18.6100005 292.885,18.51 C292.995001,18.4099995 293.124999,18.36 293.275,18.36 C293.425001,18.36 293.55,18.4149994 293.65,18.525 C293.75,18.6350006 293.8,18.7599993 293.8,18.9 Z M293.26,14.52 C293.380001,14.6200005 293.44,14.7399993 293.44,14.88 C293.44,15.0200007 293.385001,15.1449995 293.275,15.255 C293.164999,15.3650006 293.040001,15.42 292.9,15.42 C292.759999,15.42 292.635001,15.3650006 292.525,15.255 C292.414999,15.1449995 292.36,15.0200007 292.36,14.88 C292.36,14.7399993 292.414999,14.6150006 292.525,14.505 C292.635001,14.3949995 292.759999,14.34 292.9,14.34 C293.040001,14.34 293.16,14.3999994 293.26,14.52 Z M296.62,17.37 C296.039997,17.37 295.470003,17.4099996 294.91,17.49 C294.769999,17.5100001 294.640001,17.4750005 294.52,17.385 C294.399999,17.2949995 294.33,17.1750007 294.31,17.025 C294.29,16.8749993 294.325,16.7400006 294.415,16.62 C294.505,16.4999994 294.629999,16.4300001 294.79,16.41 C295.410003,16.3299996 296.029997,16.29 296.65,16.29 C296.75,14.489991 296.81,13.1800041 296.83,12.36 C296.83,12.2199993 296.884999,12.1000005 296.995,12 C297.105001,11.8999995 297.234999,11.85 297.385,11.85 C297.535001,11.85 297.66,11.9049994 297.76,12.015 C297.860001,12.1250006 297.91,12.2599992 297.91,12.42 C297.89,13.2600042 297.83,14.5499913 297.73,16.29 C298.310003,16.3100001 298.979996,16.3499997 299.74,16.41 C299.900001,16.4300001 300.03,16.4949995 300.13,16.605 C300.230001,16.7150005 300.27,16.8449993 300.25,16.995 C300.23,17.1450008 300.165001,17.2699995 300.055,17.37 C299.944999,17.4700005 299.820001,17.5100001 299.68,17.49 C298.899996,17.4299997 298.240003,17.3900001 297.7,17.37 C297.439999,22.9300278 297.489998,27.1399857 297.85,30 C297.990001,31.1200056 298.359997,31.9399974 298.96,32.46 C299.560003,32.9800026 300.289996,32.9900025 301.15,32.49 C301.270001,32.4299997 301.404999,32.4199998 301.555,32.46 C301.705001,32.5000002 301.815,32.5799994 301.885,32.7 C301.955,32.8200006 301.97,32.9549993 301.93,33.105 C301.89,33.2550008 301.810001,33.3699996 301.69,33.45 C300.389994,34.1900037 299.240005,34.1300043 298.24,33.27 C297.439996,32.5699965 296.950001,31.520007 296.77,30.12 C296.409998,27.2199855 296.359999,22.970028 296.62,17.37 Z M304.24,24.66 C305.200005,25.0000017 306.099996,24.970002 306.94,24.57 C307.820004,24.1299978 308.489998,23.4000051 308.95,22.38 C309.390002,21.4199952 309.500001,20.5900035 309.28,19.89 C309.079999,19.2699969 308.600004,19.0099995 307.84,19.11 C306.839995,19.2300006 305.970004,20.0099928 305.23,21.45 C304.769998,22.3900047 304.440001,23.459994 304.24,24.66 Z M303.19,24.42 C303.410001,23.1199935 303.769997,21.970005 304.27,20.97 C305.170005,19.1899911 306.319993,18.2100009 307.72,18.03 C308.380003,17.9499996 308.934998,18.0499986 309.385,18.33 C309.835002,18.6100014 310.149999,19.0199973 310.33,19.56 C310.630001,20.5200048 310.500003,21.6099939 309.94,22.83 C309.359997,24.0900063 308.520006,24.9899973 307.42,25.53 C306.379995,26.0300025 305.280006,26.1100017 304.12,25.77 C304.1,25.9500009 304.09,26.139999 304.09,26.34 C304.03,28.2200094 304.339997,29.7199944 305.02,30.84 C305.740004,32.0000058 306.779993,32.4700011 308.14,32.25 C308.920004,32.1299994 309.649997,31.770003 310.33,31.17 C311.010003,30.569997 311.589998,29.8400043 312.07,28.98 C312.15,28.8599994 312.259999,28.7800002 312.4,28.74 C312.540001,28.6999998 312.674999,28.7149996 312.805,28.785 C312.935001,28.8550003 313.02,28.9599993 313.06,29.1 C313.1,29.2400007 313.09,29.3799993 313.03,29.52 C312.469997,30.4600047 311.790004,31.2899964 310.99,32.01 C310.189996,32.7300036 309.300005,33.1699992 308.32,33.33 C306.459991,33.6100014 305.050005,32.9700078 304.09,31.41 C303.289996,30.1099935 302.93,28.4100105 303.01,26.31 C303.01,25.9699983 303.03,25.6300017 303.07,25.29 C302.869999,25.1099991 302.829999,24.9000012 302.95,24.66 C303.01,24.5399994 303.089999,24.4600002 303.19,24.42 Z M314.44,32.88 L314.44,31.89 C314.42,31.8499998 314.41,31.8100002 314.41,31.77 L314.41,30.6 C314.41,30.2199981 314.405,29.5450049 314.395,28.575 C314.385,27.6049952 314.38,26.8600026 314.38,26.34 C314.4,25.2799947 314.44,23.6300112 314.5,21.39 C314.5,21.2499993 314.554999,21.1300005 314.665,21.03 C314.775001,20.9299995 314.904999,20.88 315.055,20.88 C315.205001,20.88 315.329999,20.9349995 315.43,21.045 C315.530001,21.1550006 315.58,21.2899992 315.58,21.45 C315.54,22.9100073 315.51,23.9699967 315.49,24.63 L315.55,24.45 C316.630005,21.2299839 318.389988,19.0800054 320.83,18 C320.950001,17.9399997 321.079999,17.9349997 321.22,17.985 C321.360001,18.0350003 321.46,18.1249994 321.52,18.255 C321.58,18.3850007 321.585,18.5199993 321.535,18.66 C321.485,18.8000007 321.390001,18.8999997 321.25,18.96 C319.069989,19.9400049 317.510005,21.8799855 316.57,24.78 C315.909997,26.8400103 315.56,29.369985 315.52,32.37 L315.52,32.91 C315.52,32.9300001 315.51,32.9499999 315.49,32.97 C315.49,33.0300003 315.46,33.0999996 315.4,33.18 C315.3,33.3000006 315.170001,33.36 315.01,33.36 C314.829999,33.3800001 314.680001,33.3200007 314.56,33.18 C314.5,33.0999996 314.47,33.0300003 314.47,32.97 C314.45,32.9499999 314.44,32.9200002 314.44,32.88 Z" id="writer"></path>
        </g>
    </g>
</svg>
