<?xml version="1.0" encoding="UTF-8" standalone="no"?>
<svg width="327px" height="44px" viewBox="0 0 327 44" version="1.1" xmlns="http://www.w3.org/2000/svg" xmlns:xlink="http://www.w3.org/1999/xlink">
    <!-- Generator: Sketch 41.2 (35397) - http://www.bohemiancoding.com/sketch -->
    <title>logo</title>
    <desc>Created with Sketch.</desc>
    <defs></defs>
    <g id="Page-1" stroke="none" stroke-width="1" fill="none" fill-rule="evenodd">
        <g id="logo" fill="#1D1D1D">
            <text id="Bettina-Stingelin" font-family="Arial-Black, Arial Black" font-size="28" font-weight="700">
                <tspan x="4" y="33">Bettina Stingelin</tspan>
            </text>
            <path d="M271.78,18.78 C272.020001,19.6800045 272.229999,20.6199951 272.41,21.6 C272.590001,22.5800049 272.774999,23.7849929 272.965,25.215 C273.155001,26.6450071 273.29,27.5799978 273.37,28.02 C273.43,28.420002 273.519999,29.1399948 273.64,30.18 C273.960002,28.9199937 274.269998,27.8100048 274.57,26.85 C274.950002,25.649994 275.309998,24.7200033 275.65,24.06 C275.870001,23.659998 276.079999,23.3500011 276.28,23.13 C276.620002,22.8099984 276.979998,22.7099994 277.36,22.83 C277.620001,22.9100004 277.869999,23.1299982 278.11,23.49 C278.270001,23.7300012 278.449999,24.0699978 278.65,24.51 C278.950001,25.1700033 279.279998,26.0899941 279.64,27.27 C279.820001,27.870003 280.029999,28.6299954 280.27,29.55 C280.27,29.2099983 280.28,28.8700017 280.3,28.53 C280.460001,25.7699862 281.079995,22.5000189 282.16,18.72 C282.2,18.5799993 282.284999,18.4750003 282.415,18.405 C282.545001,18.3349997 282.679999,18.3199998 282.82,18.36 C282.960001,18.4000002 283.065,18.4849994 283.135,18.615 C283.205,18.7450007 283.22,18.8799993 283.18,19.02 C282.119995,22.7400186 281.520001,25.9299867 281.38,28.59 C281.34,29.1100026 281.34,29.6899968 281.38,30.33 C281.44,31.2900048 281.47,31.9199985 281.47,32.22 L281.47,32.31 C281.49,32.4100005 281.5,32.4899997 281.5,32.55 C281.52,32.6900007 281.51,32.8099995 281.47,32.91 C281.39,33.1500012 281.230001,33.2999997 280.99,33.36 C280.629998,33.4200003 280.350001,33.2700018 280.15,32.91 C280.13,32.8699998 280.08,32.7300012 280,32.49 C279.899999,32.2299987 279.710001,31.5700053 279.43,30.51 L278.59,27.6 C278.249998,26.4399942 277.940001,25.5500031 277.66,24.93 C277.499999,24.5699982 277.350001,24.290001 277.21,24.09 C277.15,24.0099996 277.1,23.9500002 277.06,23.91 L277.03,23.91 C276.909999,24.0300006 276.770001,24.2499984 276.61,24.57 C276.289998,25.1500029 275.950002,26.0199942 275.59,27.18 C275.189998,28.4000061 274.760002,30.0199899 274.3,32.04 C274.28,32.0600001 274.27,32.1099996 274.27,32.19 C274.25,32.3300007 274.24,32.4299997 274.24,32.49 C274.18,32.9100021 273.980002,33.1699995 273.64,33.27 C273.379999,33.3500004 273.170001,33.2700012 273.01,33.03 C272.97,32.9699997 272.93,32.8900005 272.89,32.79 C272.87,32.6899995 272.84,32.5500009 272.8,32.37 C272.76,32.1099987 272.71,31.6900029 272.65,31.11 C272.449999,29.4499917 272.33,28.4800014 272.29,28.2 C272.21,27.6999975 272.075001,26.750007 271.885,25.35 C271.694999,23.949993 271.515001,22.7750048 271.345,21.825 C271.174999,20.8749952 270.980001,19.9600044 270.76,19.08 C270.72,18.9199992 270.735,18.7800006 270.805,18.66 C270.875,18.5399994 270.984999,18.4600002 271.135,18.42 C271.285001,18.3799998 271.419999,18.3949996 271.54,18.465 C271.660001,18.5350003 271.74,18.6399993 271.78,18.78 Z M284.68,32.88 L284.68,31.89 C284.66,31.8499998 284.65,31.8100002 284.65,31.77 L284.65,30.6 C284.65,30.2199981 284.645,29.5450049 284.635,28.575 C284.625,27.6049952 284.62,26.8600026 284.62,26.34 C284.64,25.2799947 284.68,23.6300112 284.74,21.39 C284.74,21.2499993 284.794999,21.1300005 284.905,21.03 C285.015001,20.9299995 285.144999,20.88 285.295,20.88 C285.445001,20.88 285.569999,20.9349995 285.67,21.045 C285.77,21.1550006 285.82,21.2899992 285.82,21.45 C285.78,22.9100073 285.75,23.9699967 285.73,24.63 L285.79,24.45 C286.870005,21.2299839 288.629988,19.0800054 291.07,18 C291.190001,17.9399997 291.319999,17.9349997 291.46,17.985 C291.600001,18.0350003 291.7,18.1249994 291.76,18.255 C291.82,18.3850007 291.825,18.5199993 291.775,18.66 C291.725,18.8000007 291.630001,18.8999997 291.49,18.96 C289.309989,19.9400049 287.750005,21.8799855 286.81,24.78 C286.149997,26.8400103 285.8,29.369985 285.76,32.37 L285.76,32.91 C285.76,32.9300001 285.75,32.9499999 285.73,32.97 C285.73,33.0300003 285.7,33.0999996 285.64,33.18 C285.54,33.3000006 285.410001,33.36 285.25,33.36 C285.069999,33.3800001 284.920001,33.3200007 284.8,33.18 C284.74,33.0999996 284.71,33.0300003 284.71,32.97 C284.69,32.9499999 284.68,32.9200002 284.68,32.88 Z M293.8,18.9 C293.639999,24.8200296 293.789998,29.5099827 294.25,32.97 C294.27,33.1100007 294.235,33.2399994 294.145,33.36 C294.055,33.4800006 293.935001,33.5499999 293.785,33.57 C293.634999,33.5900001 293.500001,33.5550005 293.38,33.465 C293.259999,33.3749995 293.19,33.2500008 293.17,33.09 C292.709998,29.5099821 292.559999,24.7800294 292.72,18.9 C292.72,18.7399992 292.774999,18.6100005 292.885,18.51 C292.995001,18.4099995 293.124999,18.36 293.275,18.36 C293.425001,18.36 293.55,18.4149994 293.65,18.525 C293.75,18.6350006 293.8,18.7599993 293.8,18.9 Z M293.26,14.52 C293.380001,14.6200005 293.44,14.7399993 293.44,14.88 C293.44,15.0200007 293.385001,15.1449995 293.275,15.255 C293.164999,15.3650006 293.040001,15.42 292.9,15.42 C292.759999,15.42 292.635001,15.3650006 292.525,15.255 C292.414999,15.1449995 292.36,15.0200007 292.36,14.88 C292.36,14.7399993 292.414999,14.6150006 292.525,14.505 C292.635001,14.3949995 292.759999,14.34 292.9,14.34 C293.040001,14.34 293.16,14.3999994 293.26,14.52 Z M296.62,17.37 C296.039997,17.37 295.470003,17.4099996 294.91,17.49 C294.769999,17.5100001 294.640001,17.4750005 294.52,17.385 C294.399999,17.2949995 294.33,17.1750007 294.31,17.025 C294.29,16.8749993 294.325,16.7400006 294.415,16.62 C294.505,16.4999994 294.629999,16.4300001 294.79,16.41 C295.410003,16.3299996 296.029997,16.29 296.65,16.29 C296.75,14.489991 296.81,13.1800041 296.83,12.36 C296.83,12.2199993 296.884999,12.1000005 296.995,12 C297.105001,11.8999995 297.234999,11.85 297.385,11.85 C297.535001,11.85 297.66,11.9049994 297.76,12.015 C297.860001,12.1250006 297.91,12.2599992 297.91,12.42 C297.89,13.2600042 297.83,14.5499913 297.73,16.29 C298.310003,16.3100001 298.979996,16.3499997 299.74,16.41 C299.900001,16.4300001 300.03,16.4949995 300.13,16.605 C300.230001,16.7150005 300.27,16.8449993 300.25,16.995 C300.23,17.1450008 300.165001,17.2699995 300.055,17.37 C299.944999,17.4700005 299.820001,17.5100001 299.68,17.49 C298.899996,17.4299997 298.240003,17.3900001 297.7,17.37 C297.439999,22.9300278 297.489998,27.1399857 297.85,30 C297.990001,31.1200056 298.359997,31.9399974 298.96,32.46 C299.560003,32.9800026 300.289996,32.9900025 301.15,32.49 C301.270001,32.4299997 301.404999,32.4199998 301.555,32.46 C301.705001,32.5000002 301.815,32.5799994 301.885,32.7 C301.955,32.8200006 301.97,32.9549993 301.93,33.105 C301.89,33.2550008 301.810001,33.3699996 301.69,33.45 C300.389994,34.1900037 299.240005,34.1300043 298.24,33.27 C297.439996,32.5699965 296.950001,31.520007 296.77,30.12 C296.409998,27.2199855 296.359999,22.970028 296.62,17.37 Z M304.24,24.66 C305.200005,25.0000017 306.099996,24.970002 306.94,24.57 C307.820004,24.1299978 308.489998,23.4000051 308.95,22.38 C309.390002,21.4199952 309.500001,20.5900035 309.28,19.89 C309.079999,19.2699969 308.600004,19.0099995 307.84,19.11 C306.839995,19.2300006 305.970004,20.0099928 305.23,21.45 C304.769998,22.3900047 304.440001,23.459994 304.24,24.66 Z M303.19,24.42 C303.410001,23.1199935 303.769997,21.970005 304.27,20.97 C305.170005,19.1899911 306.319993,18.2100009 307.72,18.03 C308.380003,17.9499996 308.934998,18.0499986 309.385,18.33 C309.835002,18.6100014 310.149999,19.0199973 310.33,19.56 C310.630001,20.5200048 310.500003,21.6099939 309.94,22.83 C309.359997,24.0900063 308.520006,24.9899973 307.42,25.53 C306.379995,26.0300025 305.280006,26.1100017 304.12,25.77 C304.1,25.9500009 304.09,26.139999 304.09,26.34 C304.03,28.2200094 304.339997,29.7199944 305.02,30.84 C305.740004,32.0000058 306.779993,32.4700011 308.14,32.25 C308.920004,32.1299994 309.649997,31.770003 310.33,31.17 C311.010003,30.569997 311.589998,29.8400043 312.07,28.98 C312.15,28.8599994 312.259999,28.7800002 312.4,28.74 C312.540001,28.6999998 312.674999,28.7149996 312.805,28.785 C312.935001,28.8550003 313.02,28.9599993 313.06,29.1 C313.1,29.2400007 313.09,29.3799993 313.03,29.52 C312.469997,30.4600047 311.790004,31.2899964 310.99,32.01 C310.189996,32.7300036 309.300005,33.1699992 308.32,33.33 C306.459991,33.6100014 305.050005,32.9700078 304.09,31.41 C303.289996,30.1099935 302.93,28.4100105 303.01,26.31 C303.01,25.9699983 303.03,25.6300017 303.07,25.29 C302.869999,25.1099991 302.829999,24.9000012 302.95,24.66 C303.01,24.5399994 303.089999,24.4600002 303.19,24.42 Z M314.44,32.88 L314.44,31.89 C314.42,31.8499998 314.41,31.8100002 314.41,31.77 L314.41,30.6 C314.41,30.2199981 314.405,29.5450049 314.395,28.575 C314.385,27.6049952 314.38,26.8600026 314.38,26.34 C314.4,25.2799947 314.44,23.6300112 314.5,21.39 C314.5,21.2499993 314.554999,21.1300005 314.665,21.03 C314.775001,20.9299995 314.904999,20.88 315.055,20.88 C315.205001,20.88 315.329999,20.9349995 315.43,21.045 C315.530001,21.1550006 315.58,21.2899992 315.58,21.45 C315.54,22.9100073 315.51,23.9699967 315.49,24.63 L315.55,24.45 C316.630005,21.2299839 318.389988,19.0800054 320.83,18 C320.950001,17.9399997 321.079999,17.9349997 321.22,17.985 C321.360001,18.0350003 321.46,18.1249994 321.52,18.255 C321.58,18.3850007 321.585,18.5199993 321.535,18.66 C321.485,18.8000007 321.390001,18.8999997 321.25,18.96 C319.069989,19.9400049 317.510005,21.8799855 316.57,24.78 C315.909997,26.8400103 315.56,29.369985 315.52,32.37 L315.52,32.91 C315.52,32.9300001 315.51,32.9499999 315.49,32.97 C315.49,33.0300003 315.46,33.0999996 315.4,33.18 C315.3,33.3000006 315.170001,33.36 315.01,33.36 C314.829999,33.3800001 314.680001,33.3200007 314.56,33.18 C314.5,33.0999996 314.47,33.0300003 314.47,32.97 C314.45,32.9499999 314.44,32.9200002 314.44,32.88 Z" id="writer"></path>
        </g>
    </g>
</svg>