<?xml version="1.0" encoding="UTF-8" standalone="no"?>
<svg width="327px" height="44px" viewBox="0 0 327 44" version="1.1" xmlns="http://www.w3.org/2000/svg" xmlns:xlink="http://www.w3.org/1999/xlink">
    <!-- Generator: Sketch 41.2 (35397) - http://www.bohemiancoding.com/sketch -->
    <title>logo-white</title>
    <desc>Created with Sketch.</desc>
    <defs></defs>
    <g id="Page-1" stroke="none" stroke-width="1" fill="none" fill-rule="evenodd">
        <g id="logo-white" fill="#FFFFFF">
            <text id="Bettina-Stingelin" font-family="Arial-Black, Arial Black" font-size="28" font-weight="700">
                <tspan x="6" y="32">Bettina Stingelin</tspan>
            </text>
            <path d="M273.728,18.728 C273.952001,19.5680042 274.147999,20.4453288 274.316,21.36 C274.484001,22.2746712 274.656666,23.3993267 274.834,24.734 C275.011334,26.0686733 275.137333,26.9413313 275.212,27.352 C275.268,27.7253352 275.351999,28.3973285 275.464,29.368 C275.762668,28.1919941 276.051999,27.1560045 276.332,26.26 C276.686668,25.1399944 277.022665,24.2720031 277.34,23.656 C277.545334,23.2826648 277.741332,22.9933344 277.928,22.788 C278.245335,22.4893318 278.581332,22.3959994 278.936,22.508 C279.178668,22.582667 279.411999,22.7879983 279.636,23.124 C279.785334,23.3480011 279.953332,23.6653313 280.14,24.076 C280.420001,24.6920031 280.727998,25.5506612 281.064,26.652 C281.232001,27.2120028 281.427999,27.921329 281.652,28.78 C281.652,28.4626651 281.661333,28.1453349 281.68,27.828 C281.829334,25.2519871 282.407995,22.2000176 283.416,18.672 C283.453334,18.5413327 283.532666,18.4433337 283.654,18.378 C283.775334,18.3126663 283.901333,18.2986665 284.032,18.336 C284.162667,18.3733335 284.260666,18.4526661 284.326,18.574 C284.391334,18.6953339 284.405334,18.8213327 284.368,18.952 C283.378662,22.4240174 282.818667,25.4013209 282.688,27.884 C282.650666,28.3693358 282.650666,28.9106637 282.688,29.508 C282.744,30.4040045 282.772,30.9919986 282.772,31.272 L282.772,31.356 C282.790667,31.4493338 282.8,31.5239997 282.8,31.58 C282.818667,31.7106673 282.809334,31.8226662 282.772,31.916 C282.697333,32.1400011 282.548001,32.2799997 282.324,32.336 C281.987998,32.3920003 281.726668,32.2520017 281.54,31.916 C281.521333,31.8786665 281.474667,31.7480011 281.4,31.524 C281.306666,31.2813321 281.129335,30.6653383 280.868,29.676 L280.084,26.96 C279.766665,25.8773279 279.477335,25.0466696 279.216,24.468 C279.066666,24.1319983 278.926667,23.8706676 278.796,23.684 C278.74,23.609333 278.693334,23.5533335 278.656,23.516 L278.628,23.516 C278.515999,23.6280006 278.385334,23.8333318 278.236,24.132 C277.937332,24.673336 277.620002,25.4853279 277.284,26.568 C276.910665,27.7066724 276.509335,29.2186572 276.08,31.104 C276.061333,31.1226668 276.052,31.169333 276.052,31.244 C276.033333,31.3746673 276.024,31.4679997 276.024,31.524 C275.968,31.916002 275.781335,32.1586662 275.464,32.252 C275.221332,32.326667 275.025334,32.2520011 274.876,32.028 C274.838666,31.9719997 274.801334,31.8973338 274.764,31.804 C274.745333,31.7106662 274.717334,31.5800008 274.68,31.412 C274.642666,31.1693321 274.596,30.777336 274.54,30.236 C274.353332,28.6866589 274.241334,27.7813346 274.204,27.52 C274.129333,27.053331 274.003334,26.1666732 273.826,24.86 C273.648666,23.5533268 273.480667,22.4566711 273.322,21.57 C273.163333,20.6833289 272.981334,19.8293374 272.776,19.008 C272.738666,18.8586659 272.752666,18.7280006 272.818,18.616 C272.883334,18.5039994 272.985999,18.4293335 273.126,18.392 C273.266001,18.3546665 273.391999,18.3686663 273.504,18.434 C273.616001,18.4993337 273.690666,18.5973327 273.728,18.728 Z M285.768,31.888 L285.768,30.964 C285.749333,30.9266665 285.74,30.8893335 285.74,30.852 L285.74,29.76 C285.74,29.4053316 285.735333,28.7753379 285.726,27.87 C285.716667,26.9646621 285.712,26.2693358 285.712,25.784 C285.730667,24.7946617 285.768,23.2546771 285.824,21.164 C285.824,21.0333327 285.875333,20.9213338 285.978,20.828 C286.080667,20.7346662 286.201999,20.688 286.342,20.688 C286.482001,20.688 286.598666,20.7393328 286.692,20.842 C286.785334,20.9446672 286.832,21.0706659 286.832,21.22 C286.794666,22.5826735 286.766667,23.5719969 286.748,24.188 L286.804,24.02 C287.812005,21.0146516 289.454655,19.008005 291.732,18 C291.844001,17.9439997 291.965333,17.9393331 292.096,17.986 C292.226667,18.0326669 292.32,18.1166661 292.376,18.238 C292.432,18.3593339 292.436667,18.4853327 292.39,18.616 C292.343333,18.7466673 292.254667,18.8399997 292.124,18.896 C290.089323,19.8106712 288.633338,21.6213198 287.756,24.328 C287.139997,26.2506763 286.813334,28.611986 286.776,31.412 L286.776,31.916 C286.776,31.9346668 286.766667,31.9533332 286.748,31.972 C286.748,32.0280003 286.72,32.093333 286.664,32.168 C286.570666,32.2800006 286.449334,32.336 286.3,32.336 C286.131999,32.3546668 285.992001,32.2986673 285.88,32.168 C285.824,32.093333 285.796,32.0280003 285.796,31.972 C285.777333,31.9533332 285.768,31.9253335 285.768,31.888 Z M294.28,18.84 C294.130666,24.365361 294.270665,28.7426505 294.7,31.972 C294.718667,32.1026673 294.686,32.2239994 294.602,32.336 C294.518,32.4480006 294.406001,32.5133332 294.266,32.532 C294.125999,32.5506668 294.000001,32.5180004 293.888,32.434 C293.775999,32.3499996 293.710667,32.2333341 293.692,32.084 C293.262665,28.74265 293.122666,24.3280274 293.272,18.84 C293.272,18.6906659 293.323333,18.5693338 293.426,18.476 C293.528667,18.3826662 293.649999,18.336 293.79,18.336 C293.930001,18.336 294.046666,18.3873328 294.14,18.49 C294.233334,18.5926672 294.28,18.7093327 294.28,18.84 Z M293.776,14.752 C293.888001,14.8453338 293.944,14.9573327 293.944,15.088 C293.944,15.2186673 293.892667,15.3353328 293.79,15.438 C293.687333,15.5406672 293.570667,15.592 293.44,15.592 C293.309333,15.592 293.192667,15.5406672 293.09,15.438 C292.987333,15.3353328 292.936,15.2186673 292.936,15.088 C292.936,14.9573327 292.987333,14.8406672 293.09,14.738 C293.192667,14.6353328 293.309333,14.584 293.44,14.584 C293.570667,14.584 293.682666,14.6399994 293.776,14.752 Z M296.912,17.412 C296.370664,17.412 295.838669,17.449333 295.316,17.524 C295.185333,17.5426668 295.064001,17.5100004 294.952,17.426 C294.839999,17.3419996 294.774667,17.2300007 294.756,17.09 C294.737333,16.9499993 294.77,16.8240006 294.854,16.712 C294.938,16.5999994 295.054666,16.5346668 295.204,16.516 C295.78267,16.441333 296.36133,16.404 296.94,16.404 C297.033334,14.7239916 297.089333,13.5013372 297.108,12.736 C297.108,12.6053327 297.159333,12.4933338 297.262,12.4 C297.364667,12.3066662 297.485999,12.26 297.626,12.26 C297.766001,12.26 297.882666,12.3113328 297.976,12.414 C298.069334,12.5166672 298.116,12.6426659 298.116,12.792 C298.097333,13.5760039 298.041334,14.7799919 297.948,16.404 C298.489336,16.4226668 299.114663,16.4599997 299.824,16.516 C299.973334,16.5346668 300.094666,16.5953328 300.188,16.698 C300.281334,16.8006672 300.318667,16.9219993 300.3,17.062 C300.281333,17.2020007 300.220667,17.3186662 300.118,17.412 C300.015333,17.5053338 299.898667,17.5426668 299.768,17.524 C299.039996,17.4679997 298.424003,17.4306668 297.92,17.412 C297.677332,22.6013593 297.723998,26.5306533 298.06,29.2 C298.190667,30.2453386 298.535997,31.0106642 299.096,31.496 C299.656003,31.9813358 300.337329,31.990669 301.14,31.524 C301.252001,31.4679997 301.377999,31.4586665 301.518,31.496 C301.658001,31.5333335 301.760666,31.6079994 301.826,31.72 C301.891334,31.8320006 301.905334,31.9579993 301.868,32.098 C301.830666,32.2380007 301.756001,32.345333 301.644,32.42 C300.430661,33.1106701 299.357338,33.0546707 298.424,32.252 C297.67733,31.5986634 297.220001,30.6186732 297.052,29.312 C296.715998,26.6053198 296.669332,22.6386928 296.912,17.412 Z M304.024,24.216 C304.920004,24.5333349 305.759996,24.5053352 306.544,24.132 C307.365337,23.7213313 307.990665,23.0400048 308.42,22.088 C308.830669,21.1919955 308.933334,20.4173366 308.728,19.764 C308.541332,19.1853304 308.093337,18.9426662 307.384,19.036 C306.450662,19.1480006 305.63867,19.8759933 304.948,21.22 C304.518665,22.0973377 304.210668,23.0959944 304.024,24.216 Z M303.044,23.992 C303.249334,22.7786606 303.585331,21.705338 304.052,20.772 C304.892004,19.1106584 305.965327,18.1960008 307.272,18.028 C307.888003,17.953333 308.405998,18.0466654 308.826,18.308 C309.246002,18.5693346 309.539999,18.9519975 309.708,19.456 C309.988001,20.3520045 309.866669,21.3693276 309.344,22.508 C308.802664,23.6840059 308.018672,24.5239975 306.992,25.028 C306.021328,25.494669 304.994672,25.5693349 303.912,25.252 C303.893333,25.4200008 303.884,25.5973324 303.884,25.784 C303.828,27.5386754 304.11733,28.9386614 304.752,29.984 C305.424003,31.0666721 306.39466,31.5053344 307.664,31.3 C308.392004,31.1879994 309.07333,30.8520028 309.708,30.292 C310.34267,29.7319972 310.883998,29.0506707 311.332,28.248 C311.406667,28.1359994 311.509333,28.0613335 311.64,28.024 C311.770667,27.9866665 311.896666,28.0006663 312.018,28.066 C312.139334,28.1313337 312.218666,28.2293327 312.256,28.36 C312.293334,28.4906673 312.284,28.6213327 312.228,28.752 C311.705331,29.6293377 311.07067,30.4039966 310.324,31.076 C309.57733,31.7480034 308.746671,32.1586659 307.832,32.308 C306.095991,32.5693346 304.780004,31.9720073 303.884,30.516 C303.13733,29.3026606 302.801333,27.7160098 302.876,25.756 C302.876,25.4386651 302.894666,25.1213349 302.932,24.804 C302.745332,24.6359992 302.707999,24.4400011 302.82,24.216 C302.876,24.1039994 302.950666,24.0293335 303.044,23.992 Z M313.544,31.888 L313.544,30.964 C313.525333,30.9266665 313.516,30.8893335 313.516,30.852 L313.516,29.76 C313.516,29.4053316 313.511333,28.7753379 313.502,27.87 C313.492667,26.9646621 313.488,26.2693358 313.488,25.784 C313.506667,24.7946617 313.544,23.2546771 313.6,21.164 C313.6,21.0333327 313.651333,20.9213338 313.754,20.828 C313.856667,20.7346662 313.977999,20.688 314.118,20.688 C314.258001,20.688 314.374666,20.7393328 314.468,20.842 C314.561334,20.9446672 314.608,21.0706659 314.608,21.22 C314.570666,22.5826735 314.542667,23.5719969 314.524,24.188 L314.58,24.02 C315.588005,21.0146516 317.230655,19.008005 319.508,18 C319.620001,17.9439997 319.741333,17.9393331 319.872,17.986 C320.002667,18.0326669 320.096,18.1166661 320.152,18.238 C320.208,18.3593339 320.212667,18.4853327 320.166,18.616 C320.119333,18.7466673 320.030667,18.8399997 319.9,18.896 C317.865323,19.8106712 316.409338,21.6213198 315.532,24.328 C314.915997,26.2506763 314.589334,28.611986 314.552,31.412 L314.552,31.916 C314.552,31.9346668 314.542667,31.9533332 314.524,31.972 C314.524,32.0280003 314.496,32.093333 314.44,32.168 C314.346666,32.2800006 314.225334,32.336 314.076,32.336 C313.907999,32.3546668 313.768001,32.2986673 313.656,32.168 C313.6,32.093333 313.572,32.0280003 313.572,31.972 C313.553333,31.9533332 313.544,31.9253335 313.544,31.888 Z" id="writer"></path>
        </g>
    </g>
</svg>