<?xml version="1.0" encoding="UTF-8" standalone="no"?>
<svg width="327px" height="44px" viewBox="0 0 327 44" version="1.1" xmlns="http://www.w3.org/2000/svg" xmlns:xlink="http://www.w3.org/1999/xlink">
    <!-- Generator: Sketch 41.2 (35397) - http://www.bohemiancoding.com/sketch -->
    <g id="Page-1" stroke="none" stroke-width="1" fill="none" fill-rule="evenodd">
        <g id="logo-white" fill="#FFFFFF">
            <path d="M8.06445312,11.9570312 L19.6582031,11.9570312 C21.5905045,11.9570312 23.0738881,12.4355421 24.1083984,13.3925781 C25.1429088,14.3496142 25.6601562,15.5344981 25.6601562,16.9472656 C25.6601562,18.1321674 25.2910193,19.1484333 24.5527344,19.9960938 C24.0605444,20.5612007 23.3404995,21.0078109 22.3925781,21.3359375 C23.8326895,21.6822934 24.8922492,22.277014 25.5712891,23.1201172 C26.2503289,23.9632204 26.5898438,25.0227801 26.5898438,26.2988281 C26.5898438,27.3378958 26.3483097,28.2721313 25.8652344,29.1015625 C25.382159,29.9309937 24.7213584,30.5872372 23.8828125,31.0703125 C23.3632787,31.3710953 22.5794323,31.5898431 21.53125,31.7265625 C20.1367118,31.9088551 19.2115908,32 18.7558594,32 L8.06445312,32 L8.06445312,11.9570312 Z M14.3125,19.8183594 L17.0058594,19.8183594 C17.97201,19.8183594 18.6442038,19.6520199 19.0224609,19.3193359 C19.400718,18.986652 19.5898438,18.5058625 19.5898438,17.8769531 C19.5898438,17.2936169 19.400718,16.8378923 19.0224609,16.5097656 C18.6442038,16.181639 17.9856818,16.0175781 17.046875,16.0175781 L14.3125,16.0175781 L14.3125,19.8183594 Z M14.3125,27.6933594 L17.4707031,27.6933594 C18.5371147,27.6933594 19.2890603,27.5042337 19.7265625,27.1259766 C20.1640647,26.7477195 20.3828125,26.2395865 20.3828125,25.6015625 C20.3828125,25.0091116 20.1663433,24.5328794 19.7333984,24.1728516 C19.3004536,23.8128237 18.5416721,23.6328125 17.4570312,23.6328125 L14.3125,23.6328125 L14.3125,27.6933594 Z M45.5800781,26.1210938 L34.4238281,26.1210938 C34.524089,27.0143274 34.7656231,27.6796853 35.1484375,28.1171875 C35.6862006,28.7460969 36.3880165,29.0605469 37.2539062,29.0605469 C37.800784,29.0605469 38.32031,28.9238295 38.8125,28.6503906 C39.1132828,28.4772127 39.4368472,28.1718772 39.7832031,27.734375 L45.265625,28.2402344 C44.4270791,29.698575 43.4153705,30.744463 42.2304688,31.3779297 C41.045567,32.0113964 39.3457142,32.328125 37.1308594,32.328125 C35.2076727,32.328125 33.694667,32.0569689 32.5917969,31.5146484 C31.4889268,30.972328 30.5751989,30.1110085 29.8505859,28.9306641 C29.1259729,27.7503196 28.7636719,26.3626382 28.7636719,24.7675781 C28.7636719,22.4980355 29.4905526,20.6614654 30.9443359,19.2578125 C32.3981192,17.8541596 34.4055862,17.1523438 36.9667969,17.1523438 C39.0449323,17.1523438 40.6855409,17.4667937 41.8886719,18.0957031 C43.0918029,18.7246125 44.0078094,19.6360617 44.6367188,20.8300781 C45.2656281,22.0240945 45.5800781,23.5781154 45.5800781,25.4921875 L45.5800781,26.1210938 Z M39.9199219,23.4550781 C39.8105463,22.3795519 39.5211612,21.6093773 39.0517578,21.1445312 C38.5823544,20.6796852 37.9648476,20.4472656 37.1992188,20.4472656 C36.3150997,20.4472656 35.6087266,20.7981736 35.0800781,21.5 C34.7428369,21.9375022 34.5286463,22.5891884 34.4375,23.4550781 L39.9199219,23.4550781 Z M54.8496094,11.9570312 L54.8496094,17.4804688 L57.9121094,17.4804688 L57.9121094,21.5410156 L54.8496094,21.5410156 L54.8496094,26.6953125 C54.8496094,27.3151073 54.9088536,27.7252594 55.0273438,27.9257812 C55.2096363,28.2356786 55.5286436,28.390625 55.984375,28.390625 C56.3945333,28.390625 56.9687463,28.2721366 57.7070312,28.0351562 L58.1171875,31.8769531 C56.7408785,32.1777359 55.4557351,32.328125 54.2617188,32.328125 C52.8762952,32.328125 51.855472,32.1503924 51.1992188,31.7949219 C50.5429655,31.4394513 50.0576188,30.8994177 49.7431641,30.1748047 C49.4287094,29.4501917 49.2714844,28.2767008 49.2714844,26.6542969 L49.2714844,21.5410156 L47.2207031,21.5410156 L47.2207031,17.4804688 L49.2714844,17.4804688 L49.2714844,14.8144531 L54.8496094,11.9570312 Z M67.2773438,11.9570312 L67.2773438,17.4804688 L70.3398438,17.4804688 L70.3398438,21.5410156 L67.2773438,21.5410156 L67.2773438,26.6953125 C67.2773438,27.3151073 67.3365879,27.7252594 67.4550781,27.9257812 C67.6373707,28.2356786 67.9563779,28.390625 68.4121094,28.390625 C68.8222677,28.390625 69.3964807,28.2721366 70.1347656,28.0351562 L70.5449219,31.8769531 C69.1686129,32.1777359 67.8834695,32.328125 66.6894531,32.328125 C65.3040295,32.328125 64.2832064,32.1503924 63.6269531,31.7949219 C62.9706998,31.4394513 62.4853531,30.8994177 62.1708984,30.1748047 C61.8564437,29.4501917 61.6992188,28.2767008 61.6992188,26.6542969 L61.6992188,21.5410156 L59.6484375,21.5410156 L59.6484375,17.4804688 L61.6992188,17.4804688 L61.6992188,14.8144531 L67.2773438,11.9570312 Z M73.1972656,11.9570312 L78.7617188,11.9570312 L78.7617188,15.7441406 L73.1972656,15.7441406 L73.1972656,11.9570312 Z M73.1972656,17.4804688 L78.7617188,17.4804688 L78.7617188,32 L73.1972656,32 L73.1972656,17.4804688 Z M82.3164062,17.4804688 L87.4980469,17.4804688 L87.4980469,19.8457031 C88.2727903,18.8795525 89.0566367,18.1891297 89.8496094,17.7744141 C90.6425821,17.3596984 91.6087183,17.1523438 92.7480469,17.1523438 C94.2884192,17.1523438 95.4938108,17.610347 96.3642578,18.5263672 C97.2347049,19.4423874 97.6699219,20.8574123 97.6699219,22.7714844 L97.6699219,32 L92.078125,32 L92.078125,24.015625 C92.078125,23.1041621 91.9095069,22.4593118 91.5722656,22.0810547 C91.2350244,21.7027976 90.7610708,21.5136719 90.1503906,21.5136719 C89.4759081,21.5136719 88.9290386,21.7688777 88.5097656,22.2792969 C88.0904927,22.7897161 87.8808594,23.7057226 87.8808594,25.0273438 L87.8808594,32 L82.3164062,32 L82.3164062,17.4804688 Z M106.064453,22.1835938 L100.746094,21.6230469 C100.946616,20.6933547 101.236001,19.9619167 101.614258,19.4287109 C101.992515,18.8955051 102.537106,18.4329447 103.248047,18.0410156 C103.758466,17.7584621 104.460282,17.5397143 105.353516,17.3847656 C106.246749,17.2298169 107.212885,17.1523438 108.251953,17.1523438 C109.91993,17.1523438 111.259761,17.2457673 112.271484,17.4326172 C113.283208,17.6194671 114.126299,18.0091116 114.800781,18.6015625 C115.274742,19.0117208 115.648436,19.5927697 115.921875,20.3447266 C116.195314,21.0966834 116.332031,21.8144497 116.332031,22.4980469 L116.332031,28.9101562 C116.332031,29.5937534 116.375325,30.1292298 116.461914,30.5166016 C116.548503,30.9039733 116.737629,31.3984345 117.029297,32 L111.806641,32 C111.597004,31.6263002 111.460287,31.3414723 111.396484,31.1455078 C111.332682,30.9495433 111.268881,30.6419292 111.205078,30.2226562 C110.475908,30.9244827 109.751306,31.4257797 109.03125,31.7265625 C108.04687,32.1276062 106.903001,32.328125 105.599609,32.328125 C103.86783,32.328125 102.553064,31.9270873 101.655273,31.125 C100.757482,30.3229127 100.308594,29.3339903 100.308594,28.1582031 C100.308594,27.055333 100.632158,26.1484411 101.279297,25.4375 C101.926436,24.7265589 103.120434,24.1979184 104.861328,23.8515625 C106.948578,23.4322896 108.30208,23.1383472 108.921875,22.9697266 C109.54167,22.8011059 110.197913,22.5800795 110.890625,22.3066406 C110.890625,21.6230435 110.74935,21.1445326 110.466797,20.8710938 C110.184243,20.5976549 109.687504,20.4609375 108.976562,20.4609375 C108.0651,20.4609375 107.381513,20.6067694 106.925781,20.8984375 C106.570311,21.1263032 106.283204,21.5546844 106.064453,22.1835938 Z M110.890625,25.109375 C110.124996,25.3828139 109.327478,25.6243479 108.498047,25.8339844 C107.367833,26.1347671 106.652345,26.4309881 106.351562,26.7226562 C106.041665,27.023439 105.886719,27.3652325 105.886719,27.7480469 C105.886719,28.1855491 106.039386,28.5432929 106.344727,28.8212891 C106.650067,29.0992852 107.098955,29.2382812 107.691406,29.2382812 C108.311201,29.2382812 108.887693,29.0878921 109.420898,28.7871094 C109.954104,28.4863266 110.332356,28.1194683 110.555664,27.6865234 C110.778972,27.2535786 110.890625,26.6907587 110.890625,25.9980469 L110.890625,25.109375 Z M128.294922,25.3691406 L134.1875,25 C134.315105,25.957036 134.574868,26.6861954 134.966797,27.1875 C135.604821,27.998702 136.51627,28.4042969 137.701172,28.4042969 C138.585291,28.4042969 139.266599,28.1969422 139.745117,27.7822266 C140.223635,27.3675109 140.462891,26.8867215 140.462891,26.3398438 C140.462891,25.8203099 140.235028,25.3554708 139.779297,24.9453125 C139.323565,24.5351542 138.266284,24.1477883 136.607422,23.7832031 C133.891262,23.172523 131.954433,22.3613332 130.796875,21.3496094 C129.630202,20.3378856 129.046875,19.0481849 129.046875,17.4804688 C129.046875,16.4505157 129.345375,15.4775436 129.942383,14.5615234 C130.539391,13.6455032 131.437168,12.9254583 132.635742,12.4013672 C133.834316,11.877276 135.477203,11.6152344 137.564453,11.6152344 C140.125664,11.6152344 142.078444,12.0914666 143.422852,13.0439453 C144.767259,13.996424 145.567056,15.5117084 145.822266,17.5898438 L139.984375,17.9316406 C139.829426,17.0292924 139.503583,16.3730489 139.006836,15.9628906 C138.510089,15.5527323 137.824223,15.3476562 136.949219,15.3476562 C136.229163,15.3476562 135.686851,15.500324 135.322266,15.8056641 C134.95768,16.1110041 134.775391,16.4824197 134.775391,16.9199219 C134.775391,17.2389339 134.92578,17.5260404 135.226562,17.78125 C135.518231,18.0455742 136.210932,18.2916655 137.304688,18.5195312 C140.011732,19.1028675 141.95084,19.6930309 143.12207,20.2900391 C144.2933,20.8870473 145.145505,21.6275997 145.678711,22.5117188 C146.211917,23.3958378 146.478516,24.3847602 146.478516,25.4785156 C146.478516,26.7636783 146.12305,27.9485623 145.412109,29.0332031 C144.701168,30.117844 143.707689,30.9404269 142.431641,31.5009766 C141.155593,32.0615262 139.546885,32.3417969 137.605469,32.3417969 C134.196598,32.3417969 131.835944,31.6855534 130.523438,30.3730469 C129.210931,29.0605403 128.4681,27.3925882 128.294922,25.3691406 Z M155.939453,11.9570312 L155.939453,17.4804688 L159.001953,17.4804688 L159.001953,21.5410156 L155.939453,21.5410156 L155.939453,26.6953125 C155.939453,27.3151073 155.998697,27.7252594 156.117188,27.9257812 C156.29948,28.2356786 156.618487,28.390625 157.074219,28.390625 C157.484377,28.390625 158.05859,28.2721366 158.796875,28.0351562 L159.207031,31.8769531 C157.830722,32.1777359 156.545579,32.328125 155.351562,32.328125 C153.966139,32.328125 152.945316,32.1503924 152.289062,31.7949219 C151.632809,31.4394513 151.147463,30.8994177 150.833008,30.1748047 C150.518553,29.4501917 150.361328,28.2767008 150.361328,26.6542969 L150.361328,21.5410156 L148.310547,21.5410156 L148.310547,17.4804688 L150.361328,17.4804688 L150.361328,14.8144531 L155.939453,11.9570312 Z M161.859375,11.9570312 L167.423828,11.9570312 L167.423828,15.7441406 L161.859375,15.7441406 L161.859375,11.9570312 Z M161.859375,17.4804688 L167.423828,17.4804688 L167.423828,32 L161.859375,32 L161.859375,17.4804688 Z M170.978516,17.4804688 L176.160156,17.4804688 L176.160156,19.8457031 C176.9349,18.8795525 177.718746,18.1891297 178.511719,17.7744141 C179.304691,17.3596984 180.270828,17.1523438 181.410156,17.1523438 C182.950529,17.1523438 184.15592,17.610347 185.026367,18.5263672 C185.896814,19.4423874 186.332031,20.8574123 186.332031,22.7714844 L186.332031,32 L180.740234,32 L180.740234,24.015625 C180.740234,23.1041621 180.571616,22.4593118 180.234375,22.0810547 C179.897134,21.7027976 179.42318,21.5136719 178.8125,21.5136719 C178.138017,21.5136719 177.591148,21.7688777 177.171875,22.2792969 C176.752602,22.7897161 176.542969,23.7057226 176.542969,25.0273438 L176.542969,32 L170.978516,32 L170.978516,17.4804688 Z M199.757812,17.4804688 L204.966797,17.4804688 L204.966797,31.1933594 L204.980469,31.8359375 C204.980469,32.7474004 204.786786,33.6155558 204.399414,34.4404297 C204.012042,35.2653036 203.497074,35.9329402 202.854492,36.4433594 C202.211911,36.9537786 201.396164,37.3229155 200.407227,37.5507812 C199.418289,37.778647 198.285814,37.8925781 197.009766,37.8925781 C194.093084,37.8925781 192.090175,37.4550825 191.000977,36.5800781 C189.911778,35.7050737 189.367188,34.5338615 189.367188,33.0664062 C189.367188,32.8841137 189.376302,32.6380224 189.394531,32.328125 L194.794922,32.9433594 C194.931641,33.444664 195.141275,33.7910147 195.423828,33.9824219 C195.833986,34.2649754 196.348955,34.40625 196.96875,34.40625 C197.770837,34.40625 198.370115,34.1920594 198.766602,33.7636719 C199.163088,33.3352843 199.361328,32.587896 199.361328,31.5214844 L199.361328,29.3203125 C198.81445,29.9674512 198.267581,30.4368475 197.720703,30.7285156 C196.863928,31.1842471 195.938807,31.4121094 194.945312,31.4121094 C193.003897,31.4121094 191.436204,30.5644616 190.242188,28.8691406 C189.394527,27.6660096 188.970703,26.0755307 188.970703,24.0976562 C188.970703,21.8372283 189.517573,20.1145893 190.611328,18.9296875 C191.705084,17.7447857 193.136059,17.1523438 194.904297,17.1523438 C196.034511,17.1523438 196.966468,17.3437481 197.700195,17.7265625 C198.433923,18.1093769 199.119788,18.7428341 199.757812,19.6269531 L199.757812,17.4804688 Z M194.521484,24.5214844 C194.521484,25.5696667 194.744789,26.3466772 195.191406,26.8525391 C195.638023,27.358401 196.225908,27.6113281 196.955078,27.6113281 C197.64779,27.6113281 198.228839,27.3492865 198.698242,26.8251953 C199.167646,26.3011042 199.402344,25.510422 199.402344,24.453125 C199.402344,23.395828 199.156252,22.5869169 198.664062,22.0263672 C198.171873,21.4658175 197.570316,21.1855469 196.859375,21.1855469 C196.148434,21.1855469 195.581057,21.4430313 195.157227,21.9580078 C194.733396,22.4729843 194.521484,23.327468 194.521484,24.5214844 Z M224.449219,26.1210938 L213.292969,26.1210938 C213.39323,27.0143274 213.634764,27.6796853 214.017578,28.1171875 C214.555341,28.7460969 215.257157,29.0605469 216.123047,29.0605469 C216.669925,29.0605469 217.189451,28.9238295 217.681641,28.6503906 C217.982423,28.4772127 218.305988,28.1718772 218.652344,27.734375 L224.134766,28.2402344 C223.29622,29.698575 222.284511,30.744463 221.099609,31.3779297 C219.914708,32.0113964 218.214855,32.328125 216,32.328125 C214.076813,32.328125 212.563808,32.0569689 211.460938,31.5146484 C210.358067,30.972328 209.44434,30.1110085 208.719727,28.9306641 C207.995114,27.7503196 207.632812,26.3626382 207.632812,24.7675781 C207.632812,22.4980355 208.359693,20.6614654 209.813477,19.2578125 C211.26726,17.8541596 213.274727,17.1523438 215.835938,17.1523438 C217.914073,17.1523438 219.554681,17.4667937 220.757812,18.0957031 C221.960944,18.7246125 222.87695,19.6360617 223.505859,20.8300781 C224.134769,22.0240945 224.449219,23.5781154 224.449219,25.4921875 L224.449219,26.1210938 Z M218.789062,23.4550781 C218.679687,22.3795519 218.390302,21.6093773 217.920898,21.1445312 C217.451495,20.6796852 216.833988,20.4472656 216.068359,20.4472656 C215.18424,20.4472656 214.477867,20.7981736 213.949219,21.5 C213.611977,21.9375022 213.397787,22.5891884 213.306641,23.4550781 L218.789062,23.4550781 Z M227.197266,11.9570312 L232.775391,11.9570312 L232.775391,32 L227.197266,32 L227.197266,11.9570312 Z M236.535156,11.9570312 L242.099609,11.9570312 L242.099609,15.7441406 L236.535156,15.7441406 L236.535156,11.9570312 Z M236.535156,17.4804688 L242.099609,17.4804688 L242.099609,32 L236.535156,32 L236.535156,17.4804688 Z M245.654297,17.4804688 L250.835938,17.4804688 L250.835938,19.8457031 C251.610681,18.8795525 252.394527,18.1891297 253.1875,17.7744141 C253.980473,17.3596984 254.946609,17.1523438 256.085938,17.1523438 C257.62631,17.1523438 258.831701,17.610347 259.702148,18.5263672 C260.572595,19.4423874 261.007812,20.8574123 261.007812,22.7714844 L261.007812,32 L255.416016,32 L255.416016,24.015625 C255.416016,23.1041621 255.247398,22.4593118 254.910156,22.0810547 C254.572915,21.7027976 254.098961,21.5136719 253.488281,21.5136719 C252.813799,21.5136719 252.266929,21.7688777 251.847656,22.2792969 C251.428383,22.7897161 251.21875,23.7057226 251.21875,25.0273438 L251.21875,32 L245.654297,32 L245.654297,17.4804688 Z" id="Bettina-Stingelin"></path>
            <path d="M273.728,18.728 C273.952001,19.5680042 274.147999,20.4453288 274.316,21.36 C274.484001,22.2746712 274.656666,23.3993267 274.834,24.734 C275.011334,26.0686733 275.137333,26.9413313 275.212,27.352 C275.268,27.7253352 275.351999,28.3973285 275.464,29.368 C275.762668,28.1919941 276.051999,27.1560045 276.332,26.26 C276.686668,25.1399944 277.022665,24.2720031 277.34,23.656 C277.545334,23.2826648 277.741332,22.9933344 277.928,22.788 C278.245335,22.4893318 278.581332,22.3959994 278.936,22.508 C279.178668,22.582667 279.411999,22.7879983 279.636,23.124 C279.785334,23.3480011 279.953332,23.6653313 280.14,24.076 C280.420001,24.6920031 280.727998,25.5506612 281.064,26.652 C281.232001,27.2120028 281.427999,27.921329 281.652,28.78 C281.652,28.4626651 281.661333,28.1453349 281.68,27.828 C281.829334,25.2519871 282.407995,22.2000176 283.416,18.672 C283.453334,18.5413327 283.532666,18.4433337 283.654,18.378 C283.775334,18.3126663 283.901333,18.2986665 284.032,18.336 C284.162667,18.3733335 284.260666,18.4526661 284.326,18.574 C284.391334,18.6953339 284.405334,18.8213327 284.368,18.952 C283.378662,22.4240174 282.818667,25.4013209 282.688,27.884 C282.650666,28.3693358 282.650666,28.9106637 282.688,29.508 C282.744,30.4040045 282.772,30.9919986 282.772,31.272 L282.772,31.356 C282.790667,31.4493338 282.8,31.5239997 282.8,31.58 C282.818667,31.7106673 282.809334,31.8226662 282.772,31.916 C282.697333,32.1400011 282.548001,32.2799997 282.324,32.336 C281.987998,32.3920003 281.726668,32.2520017 281.54,31.916 C281.521333,31.8786665 281.474667,31.7480011 281.4,31.524 C281.306666,31.2813321 281.129335,30.6653383 280.868,29.676 L280.084,26.96 C279.766665,25.8773279 279.477335,25.0466696 279.216,24.468 C279.066666,24.1319983 278.926667,23.8706676 278.796,23.684 C278.74,23.609333 278.693334,23.5533335 278.656,23.516 L278.628,23.516 C278.515999,23.6280006 278.385334,23.8333318 278.236,24.132 C277.937332,24.673336 277.620002,25.4853279 277.284,26.568 C276.910665,27.7066724 276.509335,29.2186572 276.08,31.104 C276.061333,31.1226668 276.052,31.169333 276.052,31.244 C276.033333,31.3746673 276.024,31.4679997 276.024,31.524 C275.968,31.916002 275.781335,32.1586662 275.464,32.252 C275.221332,32.326667 275.025334,32.2520011 274.876,32.028 C274.838666,31.9719997 274.801334,31.8973338 274.764,31.804 C274.745333,31.7106662 274.717334,31.5800008 274.68,31.412 C274.642666,31.1693321 274.596,30.777336 274.54,30.236 C274.353332,28.6866589 274.241334,27.7813346 274.204,27.52 C274.129333,27.053331 274.003334,26.1666732 273.826,24.86 C273.648666,23.5533268 273.480667,22.4566711 273.322,21.57 C273.163333,20.6833289 272.981334,19.8293374 272.776,19.008 C272.738666,18.8586659 272.752666,18.7280006 272.818,18.616 C272.883334,18.5039994 272.985999,18.4293335 273.126,18.392 C273.266001,18.3546665 273.391999,18.3686663 273.504,18.434 C273.616001,18.4993337 273.690666,18.5973327 273.728,18.728 Z M285.768,31.888 L285.768,30.964 C285.749333,30.9266665 285.74,30.8893335 285.74,30.852 L285.74,29.76 C285.74,29.4053316 285.735333,28.7753379 285.726,27.87 C285.716667,26.9646621 285.712,26.2693358 285.712,25.784 C285.730667,24.7946617 285.768,23.2546771 285.824,21.164 C285.824,21.0333327 285.875333,20.9213338 285.978,20.828 C286.080667,20.7346662 286.201999,20.688 286.342,20.688 C286.482001,20.688 286.598666,20.7393328 286.692,20.842 C286.785334,20.9446672 286.832,21.0706659 286.832,21.22 C286.794666,22.5826735 286.766667,23.5719969 286.748,24.188 L286.804,24.02 C287.812005,21.0146516 289.454655,19.008005 291.732,18 C291.844001,17.9439997 291.965333,17.9393331 292.096,17.986 C292.226667,18.0326669 292.32,18.1166661 292.376,18.238 C292.432,18.3593339 292.436667,18.4853327 292.39,18.616 C292.343333,18.7466673 292.254667,18.8399997 292.124,18.896 C290.089323,19.8106712 288.633338,21.6213198 287.756,24.328 C287.139997,26.2506763 286.813334,28.611986 286.776,31.412 L286.776,31.916 C286.776,31.9346668 286.766667,31.9533332 286.748,31.972 C286.748,32.0280003 286.72,32.093333 286.664,32.168 C286.570666,32.2800006 286.449334,32.336 286.3,32.336 C286.131999,32.3546668 285.992001,32.2986673 285.88,32.168 C285.824,32.093333 285.796,32.0280003 285.796,31.972 C285.777333,31.9533332 285.768,31.9253335 285.768,31.888 Z M294.28,18.84 C294.130666,24.365361 294.270665,28.7426505 294.7,31.972 C294.718667,32.1026673 294.686,32.2239994 294.602,32.336 C294.518,32.4480006 294.406001,32.5133332 294.266,32.532 C294.125999,32.5506668 294.000001,32.5180004 293.888,32.434 C293.775999,32.3499996 293.710667,32.2333341 293.692,32.084 C293.262665,28.74265 293.122666,24.3280274 293.272,18.84 C293.272,18.6906659 293.323333,18.5693338 293.426,18.476 C293.528667,18.3826662 293.649999,18.336 293.79,18.336 C293.930001,18.336 294.046666,18.3873328 294.14,18.49 C294.233334,18.5926672 294.28,18.7093327 294.28,18.84 Z M293.776,14.752 C293.888001,14.8453338 293.944,14.9573327 293.944,15.088 C293.944,15.2186673 293.892667,15.3353328 293.79,15.438 C293.687333,15.5406672 293.570667,15.592 293.44,15.592 C293.309333,15.592 293.192667,15.5406672 293.09,15.438 C292.987333,15.3353328 292.936,15.2186673 292.936,15.088 C292.936,14.9573327 292.987333,14.8406672 293.09,14.738 C293.192667,14.6353328 293.309333,14.584 293.44,14.584 C293.570667,14.584 293.682666,14.6399994 293.776,14.752 Z M296.912,17.412 C296.370664,17.412 295.838669,17.449333 295.316,17.524 C295.185333,17.5426668 295.064001,17.5100004 294.952,17.426 C294.839999,17.3419996 294.774667,17.2300007 294.756,17.09 C294.737333,16.9499993 294.77,16.8240006 294.854,16.712 C294.938,16.5999994 295.054666,16.5346668 295.204,16.516 C295.78267,16.441333 296.36133,16.404 296.94,16.404 C297.033334,14.7239916 297.089333,13.5013372 297.108,12.736 C297.108,12.6053327 297.159333,12.4933338 297.262,12.4 C297.364667,12.3066662 297.485999,12.26 297.626,12.26 C297.766001,12.26 297.882666,12.3113328 297.976,12.414 C298.069334,12.5166672 298.116,12.6426659 298.116,12.792 C298.097333,13.5760039 298.041334,14.7799919 297.948,16.404 C298.489336,16.4226668 299.114663,16.4599997 299.824,16.516 C299.973334,16.5346668 300.094666,16.5953328 300.188,16.698 C300.281334,16.8006672 300.318667,16.9219993 300.3,17.062 C300.281333,17.2020007 300.220667,17.3186662 300.118,17.412 C300.015333,17.5053338 299.898667,17.5426668 299.768,17.524 C299.039996,17.4679997 298.424003,17.4306668 297.92,17.412 C297.677332,22.6013593 297.723998,26.5306533 298.06,29.2 C298.190667,30.2453386 298.535997,31.0106642 299.096,31.496 C299.656003,31.9813358 300.337329,31.990669 301.14,31.524 C301.252001,31.4679997 301.377999,31.4586665 301.518,31.496 C301.658001,31.5333335 301.760666,31.6079994 301.826,31.72 C301.891334,31.8320006 301.905334,31.9579993 301.868,32.098 C301.830666,32.2380007 301.756001,32.345333 301.644,32.42 C300.430661,33.1106701 299.357338,33.0546707 298.424,32.252 C297.67733,31.5986634 297.220001,30.6186732 297.052,29.312 C296.715998,26.6053198 296.669332,22.6386928 296.912,17.412 Z M304.024,24.216 C304.920004,24.5333349 305.759996,24.5053352 306.544,24.132 C307.365337,23.7213313 307.990665,23.0400048 308.42,22.088 C308.830669,21.1919955 308.933334,20.4173366 308.728,19.764 C308.541332,19.1853304 308.093337,18.9426662 307.384,19.036 C306.450662,19.1480006 305.63867,19.8759933 304.948,21.22 C304.518665,22.0973377 304.210668,23.0959944 304.024,24.216 Z M303.044,23.992 C303.249334,22.7786606 303.585331,21.705338 304.052,20.772 C304.892004,19.1106584 305.965327,18.1960008 307.272,18.028 C307.888003,17.953333 308.405998,18.0466654 308.826,18.308 C309.246002,18.5693346 309.539999,18.9519975 309.708,19.456 C309.988001,20.3520045 309.866669,21.3693276 309.344,22.508 C308.802664,23.6840059 308.018672,24.5239975 306.992,25.028 C306.021328,25.494669 304.994672,25.5693349 303.912,25.252 C303.893333,25.4200008 303.884,25.5973324 303.884,25.784 C303.828,27.5386754 304.11733,28.9386614 304.752,29.984 C305.424003,31.0666721 306.39466,31.5053344 307.664,31.3 C308.392004,31.1879994 309.07333,30.8520028 309.708,30.292 C310.34267,29.7319972 310.883998,29.0506707 311.332,28.248 C311.406667,28.1359994 311.509333,28.0613335 311.64,28.024 C311.770667,27.9866665 311.896666,28.0006663 312.018,28.066 C312.139334,28.1313337 312.218666,28.2293327 312.256,28.36 C312.293334,28.4906673 312.284,28.6213327 312.228,28.752 C311.705331,29.6293377 311.07067,30.4039966 310.324,31.076 C309.57733,31.7480034 308.746671,32.1586659 307.832,32.308 C306.095991,32.5693346 304.780004,31.9720073 303.884,30.516 C303.13733,29.3026606 302.801333,27.7160098 302.876,25.756 C302.876,25.4386651 302.894666,25.1213349 302.932,24.804 C302.745332,24.6359992 302.707999,24.4400011 302.82,24.216 C302.876,24.1039994 302.950666,24.0293335 303.044,23.992 Z M313.544,31.888 L313.544,30.964 C313.525333,30.9266665 313.516,30.8893335 313.516,30.852 L313.516,29.76 C313.516,29.4053316 313.511333,28.7753379 313.502,27.87 C313.492667,26.9646621 313.488,26.2693358 313.488,25.784 C313.506667,24.7946617 313.544,23.2546771 313.6,21.164 C313.6,21.0333327 313.651333,20.9213338 313.754,20.828 C313.856667,20.7346662 313.977999,20.688 314.118,20.688 C314.258001,20.688 314.374666,20.7393328 314.468,20.842 C314.561334,20.9446672 314.608,21.0706659 314.608,21.22 C314.570666,22.5826735 314.542667,23.5719969 314.524,24.188 L314.58,24.02 C315.588005,21.0146516 317.230655,19.008005 319.508,18 C319.620001,17.9439997 319.741333,17.9393331 319.872,17.986 C320.002667,18.0326669 320.096,18.1166661 320.152,18.238 C320.208,18.3593339 320.212667,18.4853327 320.166,18.616 C320.119333,18.7466673 320.030667,18.8399997 319.9,18.896 C317.865323,19.8106712 316.409338,21.6213198 315.532,24.328 C314.915997,26.2506763 314.589334,28.611986 314.552,31.412 L314.552,31.916 C314.552,31.9346668 314.542667,31.9533332 314.524,31.972 C314.524,32.0280003 314.496,32.093333 314.44,32.168 C314.346666,32.2800006 314.225334,32.336 314.076,32.336 C313.907999,32.3546668 313.768001,32.2986673 313.656,32.168 C313.6,32.093333 313.572,32.0280003 313.572,31.972 C313.553333,31.9533332 313.544,31.9253335 313.544,31.888 Z" id="writer"></path>
        </g>
    </g>
</svg>
